<svg fill="none" height="271" viewBox="0 0 331 271" width="331" xmlns="http://www.w3.org/2000/svg"><path d="m79.1716 109.131c-140.4976 77.898-349.2986 69.989-447.6726-107.41223-31.032-55.95817-39.183-119.10377 16.775-150.13577 22.265-12.248 50.293-15.994 70.191-10.839 4.307 11.577 9.417 22.732 16.176 35.068 68.293 123.249891 217.3902 134.16168 290.3957 93.6319 66.4887-36.8386 73.4191-92.2909 45.2321-143.3379-23.7446-42.618-73.01422-83.066-132.3856-107.163 1.8264-56.865 18.179-79.844 53.47768-99.474 78.22332-43.28 159.54112 20.024 209.15612 109.781 75.676 136.283 44.723 287.7372-121.3454 379.881z" fill="red"/></svg>