<svg fill="none" height="123" viewBox="0 0 239 123" width="239" xmlns="http://www.w3.org/2000/svg"><path d="m284.558.0806288c160.612-3.4027788 341.64 100.9493712 345.95 303.7553712 1.361 63.972-20.871 123.634-84.843 124.995-25.407.454-51.949-9.301-67.148-23.139 1.588-12.25 2.268-24.5 2.041-38.565-2.949-140.875-129.759-220.046-213.241-218.231-75.995 1.588-107.981 47.412-106.847 105.713 1.134 48.773 25.861 107.528 67.148 156.528-28.129 49.453-53.31 62.157-93.69 63.065-89.3793 1.814-131.80065-92.102-133.8423145-194.64-3.4027855-155.847 94.5974145-275.39803 284.4723145-279.4813712z" fill="red"/></svg>