<svg fill="none" height="25" viewBox="0 0 82 25" width="82" xmlns="http://www.w3.org/2000/svg"><g fill="#ff5a1e"><path d="m53.6911 21.2121c-.0618 1.7936-1.0501 2.7831-2.1002 2.7831-1.4207 0-2.3472-1.1751-4.015-4.2674-.7412.9277-1.4206 1.7935-1.9766 2.4738-.8647 1.0514-1.6677 1.7318-2.656 1.7318-1.0501 0-1.4207-.8041-1.4207-1.8554 0-2.3502.6177-9.7718.1235-12.92604.4942-.30923 1.2354-.49477 1.7913-.49477 1.7913 0 2.3472 1.23693 2.3472 3.33971 0 1.4225-.1853 4.1438-.3706 5.4425 2.7796-4.02 4.4474-6.9268 5.0651-8.65852 1.9148-.30923 2.9031.61847 2.9031 2.04092 0 1.4844-.9265 2.9068-3.3973 5.8136 1.5443 2.7213 2.6561 4.2056 3.7062 4.5767z"/><path d="m28.0031 16.4499c0-4.5767 2.2854-7.7309 6.1769-7.7309 3.8914 0 5.9298 3.1542 5.9298 7.5453 0 4.5767-2.1619 7.8546-6.1769 7.8546-3.5208 0-5.9298-2.7213-5.9298-7.669zm3.7679.0618c0 2.6594.7412 4.1437 2.2854 4.1437 1.5443 0 2.2855-1.608 2.2855-4.5148 0-2.1646-.4942-3.9582-2.1619-3.9582-1.606 0-2.409 1.608-2.409 4.3293z"/><path d="m67.1646 21.2122c-.0617 1.7936-1.05 2.7831-2.1001 2.7831-1.4207 0-2.2855-1.1751-3.7679-4.2674-.7412.9277-1.4207 1.7317-1.9149 2.412-.8647 1.0514-1.6677 1.7317-2.656 1.7317-1.0501 0-1.4207-.804-1.4207-1.8554 0-2.3502.6177-9.7718.1235-12.92598.4942-.30924 1.2354-.49478 1.7913-.49478 1.7913 0 2.3473 1.23694 2.3473 3.33976 0 1.4224-.1854 4.1437-.3707 5.4425 2.7796-4.0201 4.4474-6.9269 5.0651-8.65857 1.9148-.30923 2.9031.61847 2.9031 2.04097 0 1.4843-.9883 2.9068-3.3973 5.8754 1.359 2.6594 2.3473 4.2675 3.3973 4.5767z"/><path d="m80.2595 19.8514c.3706 1.7936.9266 3.2779 1.1119 3.649-.4324.3711-1.1119.6185-1.9766.6185-1.9766 0-2.5326-1.0514-2.965-4.0201-1.1736.0619-2.3472.1237-3.3972.1856-.556 2.9686-1.1737 3.7726-2.8414 3.7726-.803 0-1.4825-.2474-1.8531-.804.3089-.5566.6177-1.7317 1.1736-4.3293.4942-2.4738 1.2972-5.8136 2.0384-7.5453.6795-1.54616 1.606-2.6594 3.6444-2.6594 3.212 0 3.8296 2.5976 4.5709 8.0401.803-.1237 1.3589-.1856 1.7295-.3092.3706 1.7317.0618 2.9686-1.2354 3.4015zm-6.6093-2.6594c.8648-.0618 1.6678-.1237 2.4708-.1237-.3088-3.0305-.4324-4.9477-.9265-5.3807-.4324.3093-.9883 2.3502-1.5443 5.5044z"/><path d="m3.77673 24.3541c2.15946-.0343 3.18777-1.819 3.08494-5.4226 0-.2746-.03428-2.0592-.10283-5.3883-.03428-1.3728.10283-2.4024.37704-3.0545.23994.4462.54844 1.3042.95976 2.5397.37705 1.2698.7541 2.2994 1.09687 3.1231.30849.858.85689 1.6131 1.57679 2.3338.7198.7207 1.5081 1.0639 2.4336 1.0296.8912-.0343 1.7482-.6864 2.6051-1.9906.8569-1.3041 1.5425-2.7456 2.0909-4.29s1.1311-2.9859 1.7824-4.29002c.617-1.30417 1.1654-1.95626 1.611-1.95626.1028.65209 0 2.67698-.377 6.07468-.3771 3.3977-.5485 5.9717-.4799 7.6534.0685 1.4758.7884 2.4711 2.1937 2.9859 1.4054.5148 2.6394.3089 3.7705-.6178-.1714-1.3728-.3085-3.0888-.3428-5.148-.0342-1.0639.0343-2.677.1371-4.8735.1029-2.1965.1371-3.77522.1029-4.77051-.1371-4.53027-1.3368-7.06998-5.1416-6.93269-1.4739.03432-2.5708.65208-3.5305 2.16217-.5142.78937-.8912 1.47577-1.1997 2.12786s-.7198 1.57873-1.234 2.84858-.9598 2.29949-1.3025 3.02019c-.1029-.2402-.2742-.7207-.5142-1.5101-.5141-1.54441-.7884-2.36809-1.4739-3.94683-.6855-1.57873-1.3368-2.50538-2.26229-3.5693-.95976-1.06393-2.12518-1.578736-3.39343-1.544416-1.47391 0-2.70789.617766-3.66765 1.887616-.03427.58344-.17138 1.99057-.37704 4.25571-.20567 2.29946-.37705 4.22142-.54844 5.76582-.17138 1.5787-.34277 3.3291-.58271 5.2167-.239937 1.9219-.479877 3.3977-.685539 4.393.377048 1.3385 1.508189 1.9562 3.393429 1.8876z"/></g></svg>