<svg fill="none" height="54" viewBox="0 0 126 54" width="126" xmlns="http://www.w3.org/2000/svg"><path d="m0 0h126v53.8004h-126z" fill="#ff5a1e"/><g fill="#fff"><path d="m76.3373 33.9458c-.0649 1.8912-1.1045 2.9346-2.2091 2.9346-1.4944 0-2.4691-1.239-4.2234-4.4997-.7797.9782-1.4944 1.8912-2.0792 2.6086-.9096 1.1086-1.7543 1.8259-2.7939 1.8259-1.1046 0-1.4944-.8477-1.4944-1.9564 0-2.4781.6497-10.3037.1299-13.6296.5198-.326 1.2995-.5217 1.8843-.5217 1.8843 0 2.469 1.3043 2.469 3.5216 0 1.4999-.1949 4.3693-.3898 5.7387 2.9239-4.2388 4.6782-7.3039 5.3279-9.1298 2.0143-.3261 3.0539.6521 3.0539 2.152 0 1.5651-.9747 3.065-3.5736 6.1301 1.6243 2.8693 2.7939 4.4345 3.8984 4.8257z"/><path d="m49.316 28.9244c0-4.8258 2.4041-8.1517 6.4975-8.1517 4.0935 0 6.2376 3.3259 6.2376 7.956 0 4.8258-2.2741 8.2821-6.4975 8.2821-3.7035 0-6.2376-2.8694-6.2376-8.0864zm3.9635.0652c0 2.8042.7797 4.3693 2.4041 4.3693s2.4041-1.6956 2.4041-4.7606c0-2.2825-.5198-4.1736-2.2742-4.1736-1.6893 0-2.534 1.6955-2.534 4.5649z"/><path d="m90.5102 33.9459c-.0649 1.8912-1.1045 2.9346-2.2091 2.9346-1.4944 0-2.4041-1.239-3.9635-4.4997-.7797.9782-1.4944 1.826-2.0142 2.5434-.9097 1.1086-1.7543 1.8259-2.7939 1.8259-1.1046 0-1.4945-.8478-1.4945-1.9564 0-2.4781.6498-10.3037.13-13.6296.5198-.326 1.2995-.5217 1.8843-.5217 1.8842 0 2.469 1.3043 2.469 3.5216 0 1.4999-.1949 4.3692-.3898 5.7387 2.9238-4.2388 4.6782-7.3039 5.3279-9.1298 2.0142-.3261 3.0538.6521 3.0538 2.152 0 1.5651-1.0396 3.065-3.5736 6.1953 1.4295 2.8041 2.4691 4.4997 3.5736 4.8257z"/><path d="m104.285 32.5111c.39 1.8912.974 3.4563 1.169 3.8476-.454.3913-1.169.6521-2.079.6521-2.079 0-2.664-1.1086-3.119-4.2388-1.2342.0652-2.4687.1304-3.5733.1956-.5847 3.1302-1.2345 3.978-2.9888 3.978-.8447 0-1.5594-.2608-1.9493-.8478.3249-.5869.6498-1.8259 1.2345-4.5649.5198-2.6085 1.3645-6.13 2.1442-7.956.7148-1.6303 1.6894-2.8042 3.8336-2.8042 3.3791 0 4.0281 2.739 4.8081 8.4777.845-.1304 1.429-.1956 1.819-.326.39 1.826.065 3.1302-1.299 3.5867zm-6.9525-2.8042c.9096-.0652 1.7543-.1304 2.599-.1304-.3249-3.1954-.4548-5.2171-.9746-5.6735-.4549.326-1.0396 2.4781-1.6244 5.8039z"/><path d="m23.8323 37.2589c2.2715-.0362 3.3532-1.918 3.245-5.7178 0-.2895-.036-2.1713-.1082-5.6816-.036-1.4475.1082-2.5332.3967-3.2208.2524.4705.5769 1.3752 1.0095 2.678.3967 1.3389.7933 2.4246 1.1538 3.2931.3245.9047.9014 1.7009 1.6586 2.4608.7572.76 1.5865 1.1219 2.56 1.0857.9375-.0362 1.8389-.7238 2.7403-2.0989.9014-1.3752 1.6225-2.8951 2.1994-4.5236s1.1899-3.1484 1.8749-4.5235c.649-1.3752 1.2259-2.0628 1.6947-2.0628.1081.6876 0 2.8227-.3967 6.4054-.3966 3.5826-.5768 6.2967-.5047 8.07.0721 1.5561.8293 2.6055 2.3076 3.1484 1.4783.5428 2.7763.3257 3.9661-.6514-.1802-1.4476-.3245-3.257-.3605-5.4283-.0361-1.1218.036-2.8227.1442-5.1387.1082-2.3161.1442-3.9808.1082-5.0302-.1443-4.7769-1.4062-7.4548-5.4085-7.3101-1.5504.0362-2.7042.6876-3.7137 2.2799-.5409.8323-.9375 1.5561-1.262 2.2437-.3245.6875-.7572 1.6646-1.298 3.0036-.5409 1.339-1.0096 2.4246-1.3702 3.1846-.1081-.2533-.2884-.76-.5408-1.5923-.5409-1.6285-.8293-2.497-1.5504-4.1617-.7211-1.6646-1.4062-2.6417-2.3797-3.7636-1.0096-1.1218-2.2355-1.6646-3.5696-1.6284-1.5504 0-2.8484.6513-3.858 1.9903-.0361.6152-.1803 2.0989-.3966 4.4874-.2164 2.4246-.3966 4.4512-.5769 6.0796-.1803 1.6647-.3606 3.5103-.613 5.5007-.2524 2.0265-.5048 3.5826-.7211 4.6321.3966 1.4113 1.5865 2.0627 3.5696 1.9904z"/></g></svg>