<svg fill="none" height="47" viewBox="0 0 114 47" width="114" xmlns="http://www.w3.org/2000/svg"><g fill="#fff"><path d="m3.67607 40.6857c.09469 0 .16572.0267.21307.08.04735.0475.08878.1216.12429.2224l2.1751 5.6206c.00592.0178.00888.0385.00888.0622 0 .0653-.02368.1216-.07103.169-.04735.0475-.10357.0712-.16868.0712h-.63921c-.11837 0-.20124-.0237-.24858-.0712-.04735-.0533-.07991-.1037-.09766-.1512l-.38175-.9871h-2.80544l-.38175.9871c-.01776.0475-.05031.0979-.09766.1512-.04735.0475-.13021.0712-.24858.0712h-.639215c-.065105 0-.121332-.0237-.168681-.0712-.047349-.0474-.071024-.1037-.071024-.169 0-.0237.002959-.0444.008878-.0622l2.175102-5.6206c.03551-.1008.07694-.1749.12429-.2224.04735-.0533.11837-.08.21307-.08zm.48828 3.9042-.97657-2.5346-.97658 2.5346z"/><path d="m8.25841 46.9111c-.0651 0-.12133-.0237-.16868-.0712-.04735-.0474-.07102-.1037-.07102-.169v-5.7451c0-.0652.02367-.1215.07102-.1689.04735-.0475.10358-.0712.16868-.0712h2.61899c.3788 0 .6954.0593.9499.1779.2546.1126.4587.2579.6126.4358.1539.1719.2634.3616.3285.5691.071.2016.1065.3913.1065.5692s-.0236.338-.071.4802c-.0473.1364-.1065.255-.1775.3558-.0651.0948-.1332.1749-.2042.2401-.0651.0652-.1184.1097-.1598.1334.1834.1245.3521.3024.506.5336.1539.2253.2308.5129.2308.8627 0 .2253-.0414.4506-.1243.6759-.0828.2193-.2041.4179-.3639.5958-.1599.1779-.3611.3231-.6037.4358-.2368.1067-.512.1601-.8257.1601zm3.41799-4.4289c0-.2253-.071-.3943-.213-.507-.1421-.1185-.367-.1778-.6748-.1778h-1.57137v1.3696h1.57137c.3078 0 .5327-.0564.6748-.169.142-.1186.213-.2905.213-.5158zm-2.45917 3.3172h1.64247c.3255 0 .5622-.0682.7102-.2046.1539-.1422.2308-.326.2308-.5513s-.0799-.4091-.2397-.5514c-.1539-.1423-.3877-.2135-.7013-.2135h-1.64247z"/><path d="m17.9512 40.6857c.0947 0 .1657.0267.2131.08.0473.0475.0887.1216.1243.2224l2.1751 5.6206c.0059.0178.0088.0385.0088.0622 0 .0653-.0236.1216-.071.169-.0473.0475-.1036.0712-.1687.0712h-.6392c-.1183 0-.2012-.0237-.2486-.0712-.0473-.0533-.0799-.1037-.0976-.1512l-.3818-.9871h-2.8054l-.3818.9871c-.0177.0475-.0503.0979-.0976.1512-.0474.0475-.1302.0712-.2486.0712h-.6392c-.0651 0-.1213-.0237-.1687-.0712-.0473-.0474-.071-.1037-.071-.169 0-.0237.0029-.0444.0089-.0622l2.1751-5.6206c.0355-.1008.0769-.1749.1243-.2224.0473-.0533.1183-.08.213-.08zm.4883 3.9042-.9766-2.5346-.9766 2.5346z"/><path d="m27.1323 40.6857c.0651 0 .1214.0237.1687.0712.0474.0474.071.1037.071.1689v5.7451c0 .0653-.0236.1216-.071.169-.0473.0475-.1036.0712-.1687.0712h-.7191c-.0651 0-.1213-.0237-.1687-.0712-.0473-.0474-.071-.1037-.071-.169v-2.3478h-2.6811v2.3478c0 .0653-.0237.1216-.0711.169-.0473.0475-.1035.0712-.1686.0712h-.7192c-.0651 0-.1213-.0208-.1686-.0623-.0474-.0474-.0711-.1067-.0711-.1779v-5.7451c0-.0652.0237-.1215.0711-.1689.0473-.0475.1035-.0712.1686-.0712h.7192c.0651 0 .1213.0237.1686.0712.0474.0474.0711.1037.0711.1689v2.2856h2.6811v-2.2856c0-.0652.0237-.1215.071-.1689.0474-.0475.1036-.0712.1687-.0712z"/><path d="m33.5914 44.9367c.0118-.077.0414-.1334.0888-.1689.0532-.0415.1095-.0623.1687-.0623h.7191c.0651 0 .1213.0237.1686.0712.0533.0415.077.0978.0711.1689-.0178.2431-.0799.4862-.1865.7293-.1006.2431-.2574.4624-.4705.6581s-.4824.3557-.8079.4802-.7191.1868-1.1808.1868c-.4083 0-.7694-.0593-1.0831-.1779-.3137-.1245-.58-.2934-.799-.5069-.219-.2194-.3906-.4802-.5149-.7826-.1184-.3024-.1894-.6314-.2131-.9872-.0118-.2253-.0177-.4743-.0177-.747s.0059-.5218.0177-.7471c.0237-.3557.0947-.6847.2131-.9871.1243-.3024.2959-.5603.5149-.7737.219-.2194.4853-.3884.799-.507.3137-.1245.6748-.1867 1.0831-.1867.4617 0 .8553.0622 1.1808.1867s.5948.2846.8079.4803c.2131.1956.3699.418.4705.667.1066.2431.1687.4832.1865.7203.0059.0712-.0178.1305-.0711.1779-.0473.0415-.1035.0623-.1686.0623h-.7191c-.0592 0-.1155-.0178-.1687-.0534-.0533-.0415-.0859-.1008-.0977-.1779-.0177-.1185-.0592-.2342-.1243-.3468-.0651-.1127-.1539-.2134-.2663-.3024-.1125-.0889-.2545-.1601-.4262-.2134-.1716-.0593-.3728-.089-.6037-.089-.2308 0-.432.0356-.6037.1068-.1716.0711-.3166.166-.435.2846-.1124.1185-.2012.2608-.2663.4268-.0592.166-.0947.3409-.1066.5247-.0118.2253-.0177.4744-.0177.7471s.0059.5217.0177.747c.0119.1898.0474.3676.1066.5336.0651.1601.1539.2994.2663.418.1184.1186.2634.2135.435.2846.1717.0712.3729.1067.6037.1067.2309 0 .4321-.0267.6037-.08.1717-.0593.3137-.1334.4262-.2223.1184-.089.2101-.1898.2752-.3024.0651-.1127.1065-.2283.1243-.3469z"/><path d="m44.7433 40.6857c.0651 0 .1213.0237.1687.0712.0473.0474.071.1037.071.1689v5.7451c0 .0653-.0237.1216-.071.169-.0474.0475-.1036.0712-.1687.0712h-.7191c-.0651 0-.1214-.0237-.1687-.0712-.0474-.0474-.071-.1037-.071-.169v-2.3478h-2.6812v2.3478c0 .0653-.0237.1216-.071.169-.0474.0475-.1036.0712-.1687.0712h-.7191c-.0651 0-.1213-.0208-.1687-.0623-.0473-.0474-.071-.1067-.071-.1779v-5.7451c0-.0652.0237-.1215.071-.1689.0474-.0475.1036-.0712.1687-.0712h.7191c.0651 0 .1213.0237.1687.0712.0473.0474.071.1037.071.1689v2.2856h2.6812v-2.2856c0-.0652.0236-.1215.071-.1689.0473-.0475.1036-.0712.1687-.0712z"/><path d="m50.2968 40.6857c.0947 0 .1657.0267.2131.08.0473.0475.0887.1216.1243.2224l2.1751 5.6206c.0059.0178.0088.0385.0088.0622 0 .0653-.0236.1216-.071.169-.0473.0475-.1036.0712-.1687.0712h-.6392c-.1184 0-.2012-.0237-.2486-.0712-.0473-.0533-.0799-.1037-.0976-.1512l-.3818-.9871h-2.8054l-.3818.9871c-.0177.0475-.0503.0979-.0976.1512-.0474.0475-.1302.0712-.2486.0712h-.6392c-.0651 0-.1213-.0237-.1687-.0712-.0473-.0474-.071-.1037-.071-.169 0-.0237.0029-.0444.0089-.0622l2.1751-5.6206c.0355-.1008.0769-.1749.1243-.2224.0473-.0533.1183-.08.213-.08zm.4883 3.9042-.9766-2.5346-.9766 2.5346z"/><path d="m61.8176 40.6857c.0651 0 .1213.0237.1687.0712.0473.0474.071.1037.071.1689v.6315c0 .0652-.0237.1215-.071.1689-.0474.0475-.1036.0712-.1687.0712h-1.598v4.8735c0 .0653-.0237.1216-.071.169-.0474.0475-.1036.0712-.1687.0712h-.7191c-.0651 0-.1214-.0237-.1687-.0712-.0474-.0474-.0711-.1037-.0711-.169v-4.8735h-1.598c-.0651 0-.1213-.0237-.1687-.0712-.0473-.0474-.071-.1037-.071-.1689v-.6315c0-.0652.0237-.1215.071-.1689.0474-.0475.1036-.0712.1687-.0712z"/><path d="m64.2038 46.9111c-.0651 0-.1214-.0237-.1687-.0712-.0474-.0474-.071-.1037-.071-.169v-5.7451c0-.0652.0236-.1215.071-.1689.0473-.0475.1036-.0712.1687-.0712h2.619c.3788 0 .6954.0593.9499.1779.2545.1126.4587.2579.6126.4358.1539.1719.2634.3616.3285.5691.071.2016.1065.3913.1065.5692s-.0237.338-.071.4802c-.0474.1364-.1066.255-.1776.3558-.0651.0948-.1331.1749-.2042.2401-.0651.0652-.1183.1097-.1598.1334.1835.1245.3522.3024.5061.5336.1539.2253.2308.5129.2308.8627 0 .2253-.0414.4506-.1243.6759-.0829.2193-.2042.4179-.364.5958s-.361.3231-.6037.4358c-.2367.1067-.5119.1601-.8256.1601zm3.418-4.4289c0-.2253-.071-.3943-.2131-.507-.142-.1185-.3669-.1778-.6747-.1778h-1.5714v1.3696h1.5714c.3078 0 .5327-.0564.6747-.169.1421-.1186.2131-.2905.2131-.5158zm-2.4592 3.3172h1.6424c.3255 0 .5623-.0682.7103-.2046.1538-.1422.2308-.326.2308-.5513s-.0799-.4091-.2397-.5514c-.1539-.1423-.3877-.2135-.7014-.2135h-1.6424z"/><path d="m70.8582 43.0069c.0178-.332.0799-.6433.1864-.9338.1125-.2965.2753-.5514.4883-.7649.2131-.2193.4795-.3913.7991-.5158.3196-.1304.6984-.1956 1.1363-.1956.4321 0 .8079.0622 1.1275.1867s.586.2965.7991.5159c.213.2193.3758.4743.4882.7648.1125.2905.1776.6047.1954.9427.0059.1126.0088.2371.0088.3735.006.1364.0089.2787.0089.4269 0 .1423-.0029.2816-.0089.418 0 .1363-.0029.2608-.0088.3735-.0178.332-.0829.6462-.1954.9427-.1065.2905-.2663.5454-.4794.7648-.213.2135-.4823.3824-.8079.5069-.3196.1245-.6954.1868-1.1275.1868-.4379 0-.8167-.0623-1.1363-.1868s-.586-.2934-.7991-.5069c-.213-.2194-.3758-.4743-.4883-.7648-.1065-.2965-.1686-.6107-.1864-.9427-.0059-.1127-.0118-.2372-.0177-.3735 0-.1364 0-.2757 0-.418 0-.1482 0-.2905 0-.4269.0059-.1364.0118-.2609.0177-.3735zm4.0217.0444c-.0236-.4268-.1627-.7559-.4172-.9871-.2486-.2372-.5801-.3558-.9944-.3558s-.7487.1186-1.0032.3558c-.2486.2312-.3847.5603-.4084.9871-.0118.2253-.0177.4773-.0177.756 0 .2727.0059.5217.0177.747.0237.4269.1598.756.4084.9872.2545.2312.5889.3468 1.0032.3468s.7458-.1156.9944-.3468c.2545-.2312.3936-.5603.4172-.9872.0119-.2253.0178-.4743.0178-.747 0-.2787-.0059-.5307-.0178-.756z"/><path d="m80.7153 40.2855c-.2486 0-.4587-.0356-.6303-.1067-.1717-.0771-.3078-.172-.4084-.2846-.1006-.1186-.1746-.249-.222-.3913-.0414-.1423-.0621-.2846-.0621-.4269 0-.0474.0148-.086.0444-.1156.0296-.0356.071-.0534.1243-.0534h.506c.0533 0 .0947.0178.1243.0534.0296.0296.0444.0682.0444.1156 0 .1304.0385.2372.1154.3202.0829.083.2042.1245.364.1245s.2782-.0415.3551-.1245c.0829-.083.1243-.1898.1243-.3202 0-.0474.0148-.086.0444-.1156.0296-.0356.071-.0534.1243-.0534h.506c.0533 0 .0947.0178.1243.0534.0296.0296.0444.0682.0444.1156 0 .1423-.0236.2846-.071.4269-.0414.1423-.1124.2727-.2131.3913-.1006.1126-.2367.2075-.4084.2846-.1716.0711-.3817.1067-.6303.1067zm-1.5803 6.6256c.1007 0 .1776-.0267.2309-.0801.0532-.0533.0917-.0948.1154-.1245l2.4858-3.6996v3.664c0 .0653.0237.1216.071.169.0474.0475.1036.0712.1687.0712h.7191c.0651 0 .1214-.0237.1687-.0712.0474-.0474.071-.1037.071-.169v-5.7451c0-.0652-.0236-.1215-.071-.1689-.0473-.0475-.1036-.0712-.1687-.0712h-.6214c-.1007 0-.1776.0267-.2309.08-.0532.0534-.0917.0949-.1154.1246l-2.4858 3.6996v-3.6641c0-.0652-.0237-.1215-.071-.1689-.0474-.0475-.1036-.0712-.1687-.0712h-.7191c-.0651 0-.1213.0237-.1687.0712-.0473.0474-.071.1037-.071.1689v5.7451c0 .0653.0237.1216.071.169.0474.0475.1036.0712.1687.0712z"/><path d="m88.8526 46.9111c-.0651 0-.1213-.0237-.1687-.0712-.0473-.0474-.071-.1037-.071-.169v-5.7451c0-.0652.0237-.1215.071-.1689.0474-.0475.1036-.0712.1687-.0712h2.619c.3788 0 .6954.0593.9499.1779.2545.1126.4587.2579.6126.4358.1539.1719.2634.3616.3285.5691.071.2016.1065.3913.1065.5692s-.0236.338-.071.4802c-.0473.1364-.1065.255-.1776.3558-.0651.0948-.1331.1749-.2041.2401-.0652.0652-.1184.1097-.1598.1334.1834.1245.3521.3024.506.5336.1539.2253.2308.5129.2308.8627 0 .2253-.0414.4506-.1243.6759-.0828.2193-.2042.4179-.364.5958s-.361.3231-.6037.4358c-.2367.1067-.5119.1601-.8256.1601zm3.418-4.4289c0-.2253-.071-.3943-.2131-.507-.142-.1185-.3669-.1778-.6747-.1778h-1.5714v1.3696h1.5714c.3078 0 .5327-.0564.6747-.169.1421-.1186.2131-.2905.2131-.5158zm-2.4592 3.3172h1.6424c.3256 0 .5623-.0682.7103-.2046.1539-.1422.2308-.326.2308-.5513s-.0799-.4091-.2397-.5514c-.1539-.1423-.3877-.2135-.7014-.2135h-1.6424z"/><path d="m100.434 46.5375c.03.0297.048.0564.054.0801.005.0237.008.0415.008.0533 0 .0653-.023.1216-.071.169-.047.0475-.103.0712-.168.0712h-.8437c-.1183 0-.213-.0297-.2841-.089-.071-.0652-.1124-.1037-.1243-.1156l-2.0863-2.3567v2.3211c0 .0653-.0236.1216-.071.169-.0473.0475-.1036.0712-.1687.0712h-.7191c-.0651 0-.1213-.0237-.1687-.0712-.0473-.0474-.071-.1037-.071-.169v-5.7451c0-.0652.0237-.1215.071-.1689.0474-.0475.1036-.0712.1687-.0712h.7191c.0651 0 .1214.0237.1687.0712.0474.0474.071.1037.071.1689v2.09l1.9354-2.1344c.0533-.0593.1095-.1068.1687-.1423.0592-.0356.1361-.0534.2308-.0534h.8165c.065 0 .122.0237.169.0712.047.0474.071.1037.071.1689 0 .0475-.018.0919-.053.1334l-2.3884 2.6058z"/><path d="m101.819 41.0059c-.012-.0237-.018-.0504-.018-.0801 0-.0533.024-.1067.071-.1601.047-.0533.103-.08.169-.08h.665c.119 0 .202.0237.249.0712.053.0415.095.0919.124.1511l1.447 2.7481 1.448-2.7481c.029-.0592.068-.1096.115-.1511.053-.0475.139-.0712.257-.0712h.666c.065 0 .122.0237.169.0712.047.0474.071.1037.071.1689 0 .0297-.006.0564-.018.0801l-2.166 4.0909c-.13.2431-.257.4743-.382.6937-.118.2194-.251.4121-.399.5781-.142.166-.311.2994-.506.4002-.19.0948-.421.1423-.693.1423h-.666c-.065 0-.121-.0237-.168-.0712-.048-.0474-.071-.1037-.071-.169v-.6314c0-.0652.023-.1215.071-.169.047-.0474.103-.0711.168-.0711h.506c.19 0 .353-.0741.489-.2223.136-.1542.29-.3825.461-.6848z"/><path d="m112.651 44.9367c.012-.077.041-.1334.089-.1689.053-.0415.109-.0623.168-.0623h.72c.065 0 .121.0237.168.0712.054.0415.077.0978.071.1689-.017.2431-.08.4862-.186.7293-.101.2431-.258.4624-.471.6581s-.482.3557-.808.4802c-.325.1245-.719.1868-1.18.1868-.409 0-.77-.0593-1.083-.1779-.314-.1245-.58-.2934-.799-.5069-.219-.2194-.391-.4802-.515-.7826-.119-.3024-.19-.6314-.213-.9872-.012-.2253-.018-.4743-.018-.747s.006-.5218.018-.7471c.023-.3557.094-.6847.213-.9871.124-.3024.296-.5603.515-.7737.219-.2194.485-.3884.799-.507.313-.1245.674-.1867 1.083-.1867.461 0 .855.0622 1.18.1867.326.1245.595.2846.808.4803.213.1956.37.418.471.667.106.2431.169.4832.186.7203.006.0712-.017.1305-.071.1779-.047.0415-.103.0623-.168.0623h-.72c-.059 0-.115-.0178-.168-.0534-.053-.0415-.086-.1008-.098-.1779-.018-.1185-.059-.2342-.124-.3468-.065-.1127-.154-.2134-.267-.3024-.112-.0889-.254-.1601-.426-.2134-.171-.0593-.373-.089-.603-.089-.231 0-.432.0356-.604.1068-.172.0711-.317.166-.435.2846-.113.1185-.201.2608-.266.4268-.06.166-.095.3409-.107.5247-.012.2253-.018.4744-.018.7471s.006.5217.018.747c.012.1898.047.3676.107.5336.065.1601.153.2994.266.418.118.1186.263.2135.435.2846.172.0712.373.1067.604.1067.23 0 .432-.0267.603-.08.172-.0593.314-.1334.426-.2223.119-.089.211-.1898.276-.3024.065-.1127.106-.2283.124-.3469z"/><path d="m74.788 28.4457c-.0866 2.5175-1.4732 3.9064-2.9464 3.9064-1.9931 0-3.293-1.6493-5.6328-5.9898-1.0399 1.3021-1.9931 2.5175-2.7731 3.4724-1.2132 1.4757-2.3397 2.4306-3.7263 2.4306-1.4732 0-1.9931-1.1285-1.9931-2.6043 0-3.2987.8666-13.7158.1733-18.1431.6933-.434 1.7332-.6944 2.5131-.6944 2.5131 0 3.293 1.7362 3.293 4.6877 0 1.9966-.26 5.8162-.5199 7.6392 3.8996-5.6426 6.2394-9.7227 7.106-12.1533 2.6864-.4341 4.0729.8681 4.0729 2.8647 0 2.0834-1.2998 4.08-4.7662 8.16 2.1665 3.8196 3.7263 5.9031 5.1995 6.4239z"/><path d="m38.7491 21.7614c0-6.4239 3.2064-10.8512 8.6659-10.8512s8.3192 4.4273 8.3192 10.5907c0 6.4239-3.0331 11.0248-8.6659 11.0248-4.9395 0-8.3192-3.8196-8.3192-10.7643zm5.2862.0868c0 3.7328 1.0399 5.8162 3.2063 5.8162 2.1665 0 3.2064-2.2571 3.2064-6.3371 0-3.0383-.6933-5.5558-3.033-5.5558-2.2532 0-3.3797 2.2571-3.3797 6.0767z"/><path d="m93.6907 28.4459c-.0866 2.5174-1.4732 3.9064-2.9464 3.9064-1.9931 0-3.2063-1.6494-5.2861-5.9899-1.0399 1.3022-1.9932 2.4307-2.6865 3.3856-1.2132 1.4757-2.3397 2.4306-3.7263 2.4306-1.4732 0-1.9931-1.1285-1.9931-2.6042 0-3.2988.8666-13.7159.1733-18.1431.6933-.4341 1.7332-.6945 2.5131-.6945 2.5131 0 3.293 1.7362 3.293 4.6877 0 1.9966-.26 5.8162-.5199 7.6392 3.8996-5.6426 6.2394-9.7226 7.106-12.1533 2.6864-.434 4.0729.8681 4.0729 2.8647 0 2.0834-1.3865 4.08-4.7662 8.2469 1.9065 3.7328 3.293 5.9898 4.7662 6.4239z"/><path d="m112.062 26.5359c.52 2.5174 1.3 4.6008 1.56 5.1217-.607.5209-1.56.8681-2.773.8681-2.773 0-3.553-1.4758-4.16-5.6426-1.646.0868-3.293.1736-4.766.2604-.78 4.1669-1.646 5.2954-3.9862 5.2954-1.1266 0-2.0798-.3473-2.5997-1.1285.4332-.7813.8665-2.4307 1.6465-6.0767.6932-3.4723 1.8198-8.16 2.8597-10.5907.9537-2.1702 2.2527-3.7328 5.1127-3.7328 4.506 0 5.373 3.646 6.413 11.2852 1.126-.1736 1.906-.2604 2.426-.434.52 2.4306.087 4.1668-1.733 4.7745zm-9.272-3.7328c1.213-.0868 2.339-.1736 3.466-.1736-.433-4.2537-.607-6.9448-1.3-7.5524-.606.434-1.386 3.2987-2.166 7.726z"/><path d="m4.76081 32.8558c3.0296-.0481 4.47227-2.5531 4.328-7.6112 0-.3854-.04809-2.8903-.14427-7.5631-.04809-1.9269.14427-3.372.52898-4.2873.33662.6262.76938 1.8305 1.34648 3.5647.529 1.7824 1.058 3.2276 1.5389 4.3837.4328 1.2043 1.2022 2.2641 2.212 3.2758 1.0099 1.0116 2.116 1.4933 3.4144 1.4451 1.2503-.0481 2.4525-.9634 3.6547-2.794 1.2022-1.8305 2.164-3.8538 2.9335-6.0215.7694-2.1678 1.5869-4.191 2.5006-6.0216.8656-1.83052 1.635-2.7458 2.2602-2.7458.1442.91528 0 3.7574-.529 8.5265s-.7694 8.382-.6733 10.7425c.0962 2.0714 1.1061 3.4684 3.0777 4.191 1.9717.7226 3.7029.4335 5.2898-.8671-.2404-1.9269-.4328-4.3356-.4809-7.2259-.0481-1.4933.0481-3.7574.1924-6.8405.1442-3.083.1923-5.2989.1442-6.6959-.1923-6.3588-1.8754-9.923565-7.2133-9.730875-2.0678.048175-3.6067.915275-4.9532 3.034865-.7213 1.10796-1.2503 2.07141-1.6831 2.98669-.4328.91527-1.0098 2.21593-1.7312 3.99832-.7213 1.7824-1.3465 3.2275-1.8274 4.2392-.1442-.3372-.3847-1.0117-.7213-2.1196-.7213-2.1678-1.106-3.32392-2.0678-5.53985s-1.8755-3.51659-3.1739-5.00993c-1.3465-1.493348-2.9815-2.2159338-4.76079-2.16776197-2.06783 0-3.79903.86710397-5.14552 2.64948197-.04809.81893-.24044 2.794-.52898 5.97338-.28853 3.22758-.52897 5.92518-.76942 8.09298-.24044 2.2159-.48089 4.6727-.817511 7.3222-.336623 2.6976-.673245 4.7691-.961779 6.1661.528978 1.8787 2.11591 2.7458 4.76081 2.6494z"/></g></svg>