<svg fill="none" height="47" viewBox="0 0 116 47" width="116" xmlns="http://www.w3.org/2000/svg"><g fill="#ff5a1e"><path d="m3.74056 40.6857c.09636 0 .16863.0267.21681.08.04818.0475.09033.1216.12647.2224l2.21326 5.6206c.00602.0178.00903.0385.00903.0622 0 .0653-.02409.1216-.07227.169-.04818.0475-.10539.0712-.17164.0712h-.65042c-.12045 0-.20477-.0237-.25295-.0712-.04818-.0533-.0813-.1037-.09937-.1512l-.38845-.9871h-2.85465l-.38845.9871c-.01807.0475-.05119.0979-.09937.1512-.04818.0475-.1325.0712-.25295.0712h-.650424c-.066248 0-.123461-.0237-.171641-.0712-.04818-.0474-.07227-.1037-.07227-.169 0-.0237.003012-.0444.009034-.0622l2.213261-5.6206c.03613-.1008.07829-.1749.12647-.2224.04818-.0533.12045-.08.21681-.08zm.49685 3.9042-.99371-2.5346-.9937 2.5346z"/><path d="m8.40329 46.9111c-.06624 0-.12346-.0237-.17164-.0712-.04818-.0474-.07227-.1037-.07227-.169v-5.7451c0-.0652.02409-.1215.07227-.1689.04818-.0475.1054-.0712.17164-.0712h2.66491c.3855 0 .7077.0593.9666.1779.259.1126.4668.2579.6234.4358.1566.1719.268.3616.3342.5691.0723.2016.1084.3913.1084.5692s-.0241.338-.0722.4802c-.0482.1364-.1084.255-.1807.3558-.0663.0948-.1355.1749-.2078.2401-.0662.0652-.1204.1097-.1626.1334.1867.1245.3583.3024.5149.5336.1566.2253.2349.5129.2349.8627 0 .2253-.0422.4506-.1265.6759-.0843.2193-.2078.4179-.3704.5958s-.3673.3231-.6143.4358c-.2408.1067-.5209.1601-.8401.1601zm3.47801-4.4289c0-.2253-.0723-.3943-.2168-.507-.1446-.1185-.3734-.1778-.6866-.1778h-1.59896v1.3696h1.59896c.3132 0 .542-.0564.6866-.169.1445-.1186.2168-.2905.2168-.5158zm-2.50236 3.3172h1.67126c.3312 0 .5721-.0682.7227-.2046.1566-.1422.2348-.326.2348-.5513s-.0813-.4091-.2439-.5514c-.1565-.1423-.3944-.2135-.7136-.2135h-1.67126z"/><path d="m18.2661 40.6857c.0964 0 .1687.0267.2168.08.0482.0475.0904.1216.1265.2224l2.2133 5.6206c.006.0178.009.0385.009.0622 0 .0653-.0241.1216-.0723.169-.0481.0475-.1054.0712-.1716.0712h-.6504c-.1205 0-.2048-.0237-.253-.0712-.0482-.0533-.0813-.1037-.0993-.1512l-.3885-.9871h-2.8546l-.3885.9871c-.0181.0475-.0512.0979-.0994.1512-.0481.0475-.1325.0712-.2529.0712h-.6504c-.0663 0-.1235-.0237-.1717-.0712-.0482-.0474-.0722-.1037-.0722-.169 0-.0237.003-.0444.009-.0622l2.2132-5.6206c.0362-.1008.0783-.1749.1265-.2224.0482-.0533.1205-.08.2168-.08zm.4969 3.9042-.9937-2.5346-.9937 2.5346z"/><path d="m27.6083 40.6857c.0663 0 .1235.0237.1717.0712.0482.0474.0722.1037.0722.1689v5.7451c0 .0653-.024.1216-.0722.169-.0482.0475-.1054.0712-.1717.0712h-.7317c-.0662 0-.1235-.0237-.1716-.0712-.0482-.0474-.0723-.1037-.0723-.169v-2.3478h-2.7282v2.3478c0 .0653-.0241.1216-.0723.169-.0481.0475-.1054.0712-.1716.0712h-.7317c-.0663 0-.1235-.0208-.1717-.0623-.0482-.0474-.0722-.1067-.0722-.1779v-5.7451c0-.0652.024-.1215.0722-.1689.0482-.0475.1054-.0712.1717-.0712h.7317c.0662 0 .1235.0237.1716.0712.0482.0474.0723.1037.0723.1689v2.2856h2.7282v-2.2856c0-.0652.0241-.1215.0723-.1689.0481-.0475.1054-.0712.1716-.0712z"/><path d="m34.1807 44.9367c.0121-.077.0422-.1334.0903-.1689.0542-.0415.1115-.0623.1717-.0623h.7317c.0663 0 .1235.0237.1717.0712.0542.0415.0783.0978.0722.1689-.018.2431-.0813.4862-.1897.7293-.1024.2431-.262.4624-.4788.6581s-.4908.3557-.822.4802c-.3313.1245-.7318.1868-1.2015.1868-.4156 0-.7829-.0593-1.1021-.1779-.3192-.1245-.5902-.2934-.8131-.5069-.2228-.2194-.3974-.4802-.5239-.7826-.1205-.3024-.1927-.6314-.2168-.9872-.0121-.2253-.0181-.4743-.0181-.747s.006-.5218.0181-.7471c.0241-.3557.0963-.6847.2168-.9871.1265-.3024.3011-.5603.5239-.7737.2229-.2194.4939-.3884.8131-.507.3192-.1245.6865-.1867 1.1021-.1867.4697 0 .8702.0622 1.2015.1867.3312.1245.6052.2846.822.4803.2168.1956.3764.418.4788.667.1084.2431.1717.4832.1897.7203.0061.0712-.018.1305-.0722.1779-.0482.0415-.1054.0623-.1717.0623h-.7317c-.0602 0-.1175-.0178-.1717-.0534-.0542-.0415-.0873-.1008-.0993-.1779-.0181-.1185-.0602-.2342-.1265-.3468-.0662-.1127-.1566-.2134-.271-.3024-.1144-.0889-.259-.1601-.4336-.2134-.1747-.0593-.3794-.089-.6143-.089s-.4397.0356-.6143.1068c-.1747.0711-.3222.166-.4427.2846-.1144.1185-.2047.2608-.271.4268-.0602.166-.0963.3409-.1084.5247-.012.2253-.018.4744-.018.7471s.006.5217.018.747c.0121.1898.0482.3676.1084.5336.0663.1601.1566.2994.271.418.1205.1186.268.2135.4427.2846.1746.0712.3794.1067.6143.1067s.4396-.0267.6143-.08c.1746-.0593.3192-.1334.4336-.2223.1204-.089.2138-.1898.28-.3024.0663-.1127.1084-.2283.1265-.3469z"/><path d="m45.5283 40.6857c.0662 0 .1234.0237.1716.0712.0482.0474.0723.1037.0723.1689v5.7451c0 .0653-.0241.1216-.0723.169-.0482.0475-.1054.0712-.1716.0712h-.7318c-.0662 0-.1234-.0237-.1716-.0712-.0482-.0474-.0723-.1037-.0723-.169v-2.3478h-2.7282v2.3478c0 .0653-.0241.1216-.0722.169-.0482.0475-.1054.0712-.1717.0712h-.7317c-.0663 0-.1235-.0208-.1717-.0623-.0481-.0474-.0722-.1067-.0722-.1779v-5.7451c0-.0652.0241-.1215.0722-.1689.0482-.0475.1054-.0712.1717-.0712h.7317c.0663 0 .1235.0237.1717.0712.0481.0474.0722.1037.0722.1689v2.2856h2.7282v-2.2856c0-.0652.0241-.1215.0723-.1689.0482-.0475.1054-.0712.1716-.0712z"/><path d="m51.1792 40.6857c.0964 0 .1686.0267.2168.08.0482.0475.0903.1216.1265.2224l2.2132 5.6206c.0061.0178.0091.0385.0091.0622 0 .0653-.0241.1216-.0723.169-.0482.0475-.1054.0712-.1716.0712h-.6505c-.1204 0-.2047-.0237-.2529-.0712-.0482-.0533-.0813-.1037-.0994-.1512l-.3884-.9871h-2.8547l-.3884.9871c-.0181.0475-.0512.0979-.0994.1512-.0482.0475-.1325.0712-.2529.0712h-.6505c-.0662 0-.1234-.0237-.1716-.0712-.0482-.0474-.0723-.1037-.0723-.169 0-.0237.003-.0444.009-.0622l2.2133-5.6206c.0361-.1008.0783-.1749.1265-.2224.0482-.0533.1204-.08.2168-.08zm.4968 3.9042-.9937-2.5346-.9937 2.5346z"/><path d="m62.9021 40.6857c.0663 0 .1235.0237.1717.0712.0481.0474.0722.1037.0722.1689v.6315c0 .0652-.0241.1215-.0722.1689-.0482.0475-.1054.0712-.1717.0712h-1.626v4.8735c0 .0653-.0241.1216-.0723.169-.0482.0475-.1054.0712-.1716.0712h-.7318c-.0662 0-.1234-.0237-.1716-.0712-.0482-.0474-.0723-.1037-.0723-.169v-4.8735h-1.6261c-.0662 0-.1234-.0237-.1716-.0712-.0482-.0474-.0723-.1037-.0723-.1689v-.6315c0-.0652.0241-.1215.0723-.1689.0482-.0475.1054-.0712.1716-.0712z"/><path d="m65.3301 46.9111c-.0662 0-.1234-.0237-.1716-.0712-.0482-.0474-.0723-.1037-.0723-.169v-5.7451c0-.0652.0241-.1215.0723-.1689.0482-.0475.1054-.0712.1716-.0712h2.665c.3854 0 .7076.0593.9666.1779.259.1126.4667.2579.6233.4358.1566.1719.268.3616.3343.5691.0722.2016.1084.3913.1084.5692s-.0241.338-.0723.4802c-.0482.1364-.1084.255-.1807.3558-.0662.0948-.1355.1749-.2077.2401-.0663.0652-.1205.1097-.1626.1334.1866.1245.3583.3024.5149.5336.1566.2253.2349.5129.2349.8627 0 .2253-.0422.4506-.1265.6759-.0843.2193-.2078.4179-.3704.5958s-.3674.3231-.6143.4358c-.2409.1067-.5209.1601-.8401.1601zm3.478-4.4289c0-.2253-.0722-.3943-.2168-.507-.1445-.1185-.3734-.1778-.6865-.1778h-1.599v1.3696h1.599c.3131 0 .542-.0564.6865-.169.1446-.1186.2168-.2905.2168-.5158zm-2.5023 3.3172h1.6712c.3313 0 .5722-.0682.7227-.2046.1566-.1422.2349-.326.2349-.5513s-.0813-.4091-.2439-.5514c-.1566-.1423-.3945-.2135-.7137-.2135h-1.6712z"/><path d="m72.1013 43.0069c.0181-.332.0813-.6433.1897-.9338.1145-.2965.2801-.5514.4969-.7649.2168-.2193.4878-.3913.813-.5158.3253-.1304.7107-.1956 1.1563-.1956.4397 0 .8221.0622 1.1473.1867s.5963.2965.8131.5159c.2168.2193.3824.4743.4968.7648s.1807.6047.1988.9427c.006.1126.009.2371.009.3735.006.1364.009.2787.009.4269 0 .1423-.003.2816-.009.418 0 .1363-.003.2608-.009.3735-.0181.332-.0844.6462-.1988.9427-.1084.2905-.271.5454-.4878.7648-.2168.2135-.4908.3824-.8221.5069-.3252.1245-.7076.1868-1.1473.1868-.4456 0-.831-.0623-1.1563-.1868-.3252-.1245-.5962-.2934-.813-.5069-.2168-.2194-.3824-.4743-.4969-.7648-.1084-.2965-.1716-.6107-.1897-.9427-.006-.1127-.012-.2372-.018-.3735 0-.1364 0-.2757 0-.418 0-.1482 0-.2905 0-.4269.006-.1364.012-.2609.018-.3735zm4.0923.0444c-.0241-.4268-.1656-.7559-.4246-.9871-.2529-.2372-.5902-.3558-1.0118-.3558-.4215 0-.7618.1186-1.0208.3558-.2529.2312-.3914.5603-.4155.9871-.0121.2253-.0181.4773-.0181.756 0 .2727.006.5217.0181.747.0241.4269.1626.756.4155.9872.259.2312.5993.3468 1.0208.3468.4216 0 .7589-.1156 1.0118-.3468.259-.2312.4005-.5603.4246-.9872.0121-.2253.0181-.4743.0181-.747 0-.2787-.006-.5307-.0181-.756z"/><path d="m82.1314 40.2855c-.253 0-.4668-.0356-.6414-.1067-.1747-.0771-.3132-.172-.4156-.2846-.1024-.1186-.1776-.249-.2258-.3913-.0422-.1423-.0633-.2846-.0633-.4269 0-.0474.0151-.086.0452-.1156.0301-.0356.0723-.0534.1265-.0534h.5149c.0542 0 .0964.0178.1265.0534.0301.0296.0451.0682.0451.1156 0 .1304.0392.2372.1175.3202.0843.083.2078.1245.3704.1245s.283-.0415.3613-.1245c.0843-.083.1265-.1898.1265-.3202 0-.0474.015-.086.0452-.1156.0301-.0356.0722-.0534.1264-.0534h.515c.0542 0 .0963.0178.1264.0534.0301.0296.0452.0682.0452.1156 0 .1423-.0241.2846-.0723.4269-.0421.1423-.1144.2727-.2168.3913-.1024.1126-.2409.2075-.4155.2846-.1747.0711-.3885.1067-.6414.1067zm-1.608 6.6256c.1024 0 .1806-.0267.2348-.0801.0542-.0533.0934-.0948.1175-.1245l2.5294-3.6996v3.664c0 .0653.0241.1216.0723.169.0482.0475.1054.0712.1716.0712h.7318c.0662 0 .1234-.0237.1716-.0712.0482-.0474.0723-.1037.0723-.169v-5.7451c0-.0652-.0241-.1215-.0723-.1689-.0482-.0475-.1054-.0712-.1716-.0712h-.6324c-.1024 0-.1807.0267-.2349.08-.0542.0534-.0933.0949-.1174.1246l-2.5294 3.6996v-3.6641c0-.0652-.0241-.1215-.0723-.1689-.0482-.0475-.1054-.0712-.1717-.0712h-.7317c-.0662 0-.1235.0237-.1716.0712-.0482.0474-.0723.1037-.0723.1689v5.7451c0 .0653.0241.1216.0723.169.0481.0475.1054.0712.1716.0712z"/><path d="m90.4114 46.9111c-.0662 0-.1235-.0237-.1716-.0712-.0482-.0474-.0723-.1037-.0723-.169v-5.7451c0-.0652.0241-.1215.0723-.1689.0481-.0475.1054-.0712.1716-.0712h2.6649c.3855 0 .7077.0593.9667.1779.2589.1126.4667.2579.6233.4358.1566.1719.268.3616.3342.5691.0723.2016.1084.3913.1084.5692s-.0241.338-.0722.4802c-.0482.1364-.1084.255-.1807.3558-.0663.0948-.1355.1749-.2078.2401-.0662.0652-.1204.1097-.1626.1334.1867.1245.3583.3024.5149.5336.1566.2253.2349.5129.2349.8627 0 .2253-.0421.4506-.1265.6759-.0843.2193-.2077.4179-.3704.5958-.1626.1779-.3673.3231-.6142.4358-.2409.1067-.521.1601-.8402.1601zm3.478-4.4289c0-.2253-.0723-.3943-.2168-.507-.1446-.1185-.3734-.1778-.6866-.1778h-1.599v1.3696h1.599c.3132 0 .542-.0564.6866-.169.1445-.1186.2168-.2905.2168-.5158zm-2.5024 3.3172h1.6713c.3312 0 .5721-.0682.7227-.2046.1566-.1422.2349-.326.2349-.5513s-.0813-.4091-.244-.5514c-.1565-.1423-.3944-.2135-.7136-.2135h-1.6713z"/><path d="m102.196 46.5375c.03.0297.048.0564.054.0801.007.0237.01.0415.01.0533 0 .0653-.025.1216-.073.169-.048.0475-.105.0712-.171.0712h-.859c-.12 0-.216-.0297-.289-.089-.072-.0652-.114-.1037-.126-.1156l-2.123-2.3567v2.3211c0 .0653-.0241.1216-.0723.169-.0482.0475-.1054.0712-.1717.0712h-.7317c-.0662 0-.1234-.0237-.1716-.0712-.0482-.0474-.0723-.1037-.0723-.169v-5.7451c0-.0652.0241-.1215.0723-.1689.0482-.0475.1054-.0712.1716-.0712h.7317c.0663 0 .1235.0237.1717.0712.0482.0474.0723.1037.0723.1689v2.09l1.969-2.1344c.055-.0593.112-.1068.172-.1423.06-.0356.138-.0534.235-.0534h.831c.066 0 .123.0237.172.0712.048.0474.072.1037.072.1689 0 .0475-.018.0919-.054.1334l-2.4304 2.6058z"/><path d="m103.605 41.0059c-.012-.0237-.018-.0504-.018-.0801 0-.0533.024-.1067.072-.1601.048-.0533.106-.08.172-.08h.677c.121 0 .205.0237.253.0712.054.0415.097.0919.127.1511l1.472 2.7481 1.473-2.7481c.03-.0592.069-.1096.117-.1511.054-.0475.142-.0712.262-.0712h.678c.066 0 .123.0237.171.0712.048.0474.073.1037.073.1689 0 .0297-.006.0564-.019.0801l-2.204 4.0909c-.132.2431-.262.4743-.388.6937-.121.2194-.256.4121-.407.5781-.144.166-.316.2994-.515.4002-.192.0948-.427.1423-.704.1423h-.678c-.066 0-.123-.0237-.171-.0712-.049-.0474-.073-.1037-.073-.169v-.6314c0-.0652.024-.1215.073-.169.048-.0474.105-.0711.171-.0711h.515c.193 0 .358-.0741.497-.2223.139-.1542.295-.3825.47-.6848z"/><path d="m114.627 44.9367c.012-.077.042-.1334.091-.1689.054-.0415.111-.0623.171-.0623h.732c.066 0 .123.0237.172.0712.054.0415.078.0978.072.1689-.018.2431-.081.4862-.19.7293-.102.2431-.262.4624-.479.6581-.216.1957-.49.3557-.822.4802-.331.1245-.731.1868-1.201.1868-.416 0-.783-.0593-1.102-.1779-.319-.1245-.59-.2934-.813-.5069-.223-.2194-.398-.4802-.524-.7826-.121-.3024-.193-.6314-.217-.9872-.012-.2253-.018-.4743-.018-.747s.006-.5218.018-.7471c.024-.3557.096-.6847.217-.9871.126-.3024.301-.5603.524-.7737.223-.2194.494-.3884.813-.507.319-.1245.686-.1867 1.102-.1867.47 0 .87.0622 1.201.1867.332.1245.606.2846.822.4803.217.1956.377.418.479.667.109.2431.172.4832.19.7203.006.0712-.018.1305-.072.1779-.049.0415-.106.0623-.172.0623h-.732c-.06 0-.117-.0178-.171-.0534-.055-.0415-.088-.1008-.1-.1779-.018-.1185-.06-.2342-.126-.3468-.066-.1127-.157-.2134-.271-.3024-.115-.0889-.259-.1601-.434-.2134-.174-.0593-.379-.089-.614-.089s-.44.0356-.614.1068c-.175.0711-.323.166-.443.2846-.114.1185-.205.2608-.271.4268-.06.166-.096.3409-.108.5247-.012.2253-.019.4744-.019.7471s.007.5217.019.747c.012.1898.048.3676.108.5336.066.1601.157.2994.271.418.12.1186.268.2135.443.2846.174.0712.379.1067.614.1067s.44-.0267.614-.08c.175-.0593.319-.1334.434-.2223.12-.089.214-.1898.28-.3024.066-.1127.108-.2283.126-.3469z"/><path d="m76.1001 28.4457c-.0882 2.5175-1.499 3.9064-2.9981 3.9064-2.0281 0-3.3508-1.6493-5.7316-5.9898-1.0582 1.3021-2.0281 2.5175-2.8217 3.4724-1.2346 1.4757-2.3809 2.4306-3.7917 2.4306-1.4991 0-2.0282-1.1285-2.0282-2.6043 0-3.2987.8818-13.7158.1764-18.1431.7054-.434 1.7636-.6944 2.5572-.6944 2.5572 0 3.3508 1.7362 3.3508 4.6877 0 1.9966-.2645 5.8162-.5291 7.6392 3.9681-5.6426 6.3489-9.7227 7.2307-12.1533 2.7335-.4341 4.1444.8681 4.1444 2.8647 0 2.0834-1.3227 4.08-4.8498 8.16 2.2044 3.8196 3.7917 5.9031 5.2907 6.4239z"/><path d="m39.4289 21.7614c0-6.4239 3.2626-10.8512 8.8179-10.8512s8.4652 4.4273 8.4652 10.5907c0 6.4239-3.0863 11.0248-8.8179 11.0248-5.0262 0-8.4652-3.8196-8.4652-10.7643zm5.3789.0868c0 3.7328 1.0582 5.8162 3.2626 5.8162 2.2045 0 3.2627-2.2571 3.2627-6.3371 0-3.0383-.7055-5.5558-3.0863-5.5558-2.2927 0-3.439 2.2571-3.439 6.0767z"/><path d="m95.3344 28.4459c-.0881 2.5174-1.499 3.9064-2.9981 3.9064-2.0281 0-3.2626-1.6494-5.3789-5.9899-1.0581 1.3022-2.0281 2.4307-2.7335 3.3856-1.2345 1.4757-2.3809 2.4306-3.7917 2.4306-1.4991 0-2.0281-1.1285-2.0281-2.6042 0-3.2988.8818-13.7159.1763-18.1431.7055-.4341 1.7636-.6945 2.5572-.6945 2.5572 0 3.3508 1.7362 3.3508 4.6877 0 1.9966-.2645 5.8162-.5291 7.6392 3.9681-5.6426 6.3489-9.7226 7.2307-12.1533 2.7336-.434 4.1444.8681 4.1444 2.8647 0 2.0834-1.4108 4.08-4.8498 8.2469 1.9399 3.7328 3.3508 5.9898 4.8498 6.4239z"/><path d="m114.028 26.5359c.529 2.5174 1.323 4.6008 1.587 5.1217-.617.5209-1.587.8681-2.821.8681-2.822 0-3.616-1.4758-4.233-5.6426-1.675.0868-3.351.1736-4.85.2604-.793 4.1669-1.675 5.2954-4.056 5.2954-1.1463 0-2.1163-.3473-2.6454-1.1285.4409-.7813.8818-2.4307 1.6754-6.0767.7055-3.4723 1.852-8.16 2.91-10.5907.97-2.1702 2.293-3.7328 5.203-3.7328 4.585 0 5.467 3.646 6.525 11.2852 1.146-.1736 1.94-.2604 2.469-.434.529 2.4306.088 4.1668-1.764 4.7745zm-9.435-3.7328c1.235-.0868 2.381-.1736 3.527-.1736-.441-4.2537-.617-6.9448-1.322-7.5524-.618.434-1.411 3.2987-2.205 7.726z"/><path d="m4.84433 32.8558c3.08275-.0481 4.55073-2.5531 4.40393-7.6112 0-.3854-.04893-2.8903-.14679-7.5631-.04894-1.9269.14679-3.372.53825-4.2873.34253.6262.78288 1.8305 1.37008 3.5647.5383 1.7824 1.0766 3.2276 1.5659 4.3837.4404 1.2043 1.2233 2.2641 2.2509 3.2758 1.0276 1.0116 2.153 1.4933 3.4742 1.4451 1.2722-.0481 2.4956-.9634 3.7189-2.794 1.2233-1.8305 2.2019-3.8538 2.9849-6.0215.7829-2.1678 1.6147-4.191 2.5445-6.0216.8807-1.83052 1.6637-2.7458 2.2998-2.7458.1468.91528 0 3.7574-.5383 8.5265-.5382 4.7691-.7829 8.382-.685 10.7425.0978 2.0714 1.1254 3.4684 3.1317 4.191 2.0062.7226 3.7678.4335 5.3826-.8671-.2447-1.9269-.4404-4.3356-.4894-7.2259-.0489-1.4933.049-3.7574.1958-6.8405.1468-3.083.1957-5.2989.1467-6.6959-.1957-6.3588-1.9083-9.923565-7.3398-9.730875-2.1041.048175-3.67.915275-5.0401 3.034865-.734 1.10796-1.2722 2.07141-1.7126 2.98669-.4404.91527-1.0276 2.21593-1.7616 3.99832-.734 1.7824-1.3701 3.2275-1.8595 4.2392-.1467-.3372-.3914-1.0117-.7339-2.1196-.734-2.1678-1.1255-3.32392-2.1041-5.53985-.9787-2.21593-1.9084-3.51659-3.2296-5.00993-1.3701-1.493348-3.0338-2.2159338-4.84432-2.16776197-2.10411 0-3.86568.86710397-5.23579 2.64948197-.04894.81893-.24467 2.794-.53826 5.97338-.2936 3.22758-.53826 5.92518-.78292 8.09298-.24467 2.2159-.48933 4.6727-.831858 7.3222-.342528 2.6976-.685056 4.7691-.978652 6.1661.538259 1.8787 2.15303 2.7458 4.84433 2.6494z"/></g></svg>