<svg width="360" height="53" viewBox="0 0 360 53" fill="none" xmlns="http://www.w3.org/2000/svg">
<path d="M6.36024 46.24V7.36001L0.240234 5.92V1.96L13.9202 1.6H22.9202C30.0242 1.6 35.5682 3.73601 39.5522 8.00801C43.5842 12.232 45.6002 18.256 45.6002 26.08C45.6002 34 43.4402 40.312 39.1202 45.016C34.8002 49.672 29.0402 52 21.8402 52H0.240234V47.68L6.36024 46.24ZM13.9202 46.24H22.2002C26.9042 46.24 30.6002 44.608 33.2882 41.344C35.9762 38.032 37.3202 33.064 37.3202 26.44C37.3202 19.96 36.0242 15.16 33.4322 12.04C30.8402 8.92001 27.2162 7.36001 22.5602 7.36001H13.9202V46.24Z" fill="black"/>
<path d="M57.514 22.84H74.074V28.6H57.514V46.24H74.074L75.514 39.04H80.194V52H43.834V47.68L49.954 46.24V7.36001L43.834 5.92V1.96L57.514 1.6H79.474V13.84H74.794L72.994 7.36001H57.514V22.84Z" fill="black"/>
<path d="M122.691 46.24V10.24L120.531 15.64L109.371 38.32L103.611 38.68L92.4509 15.28L90.6509 10.24V46.24L97.4909 47.68V52H78.0509V47.68L84.1709 46.24V7.36001L78.0509 5.92V1.96L94.2509 1.6L107.283 30.4L120.891 1.96L136.011 1.6V5.92L129.891 7.36001V46.24L136.011 47.68V52H115.851V47.68L122.691 46.24Z" fill="black"/>
<path d="M157.234 0.880005C164.194 0.880005 169.642 3.136 173.578 7.648C177.562 12.16 179.554 18.304 179.554 26.08C179.554 34 177.346 40.432 172.93 45.376C168.514 50.272 162.802 52.72 155.794 52.72C148.738 52.72 143.314 50.536 139.522 46.168C135.73 41.752 133.834 35.416 133.834 27.16C133.834 19.192 135.946 12.832 140.17 8.08001C144.394 3.28001 150.082 0.880005 157.234 0.880005ZM156.874 7.00001C147.034 7.00001 142.114 13.6 142.114 26.8C142.114 40 146.794 46.6 156.154 46.6C160.954 46.6 164.674 44.92 167.314 41.56C169.954 38.152 171.274 33.112 171.274 26.44C171.274 13.48 166.474 7.00001 156.874 7.00001Z" fill="black"/>
<path d="M185.306 37.24L186.746 44.8C188.906 46 191.546 46.6 194.666 46.6C197.546 46.6 200.09 45.928 202.298 44.584C204.554 43.192 205.682 41.296 205.682 38.896C205.682 36.88 204.794 35.224 203.018 33.928C201.242 32.584 199.082 31.504 196.538 30.688C193.994 29.824 191.426 28.888 188.834 27.88C186.29 26.824 184.13 25.24 182.354 23.128C180.578 21.016 179.69 18.376 179.69 15.208C179.69 10.456 181.298 6.88001 184.514 4.48001C187.778 2.08001 191.858 0.880005 196.754 0.880005C198.77 0.880005 201.05 1.12 203.594 1.6C206.138 2.08 208.154 2.56 209.642 3.04001L211.946 3.76001L211.586 16H206.906L204.458 8.296C202.01 7.43201 199.466 7.00001 196.826 7.00001C193.754 7.00001 191.378 7.69601 189.698 9.08801C188.066 10.432 187.25 12.064 187.25 13.984C187.25 15.472 187.73 16.768 188.69 17.872C189.65 18.928 190.874 19.816 192.362 20.536C193.898 21.208 195.578 21.856 197.402 22.48C199.274 23.104 201.122 23.8 202.946 24.568C204.818 25.336 206.498 26.224 207.986 27.232C209.522 28.192 210.77 29.512 211.73 31.192C212.69 32.824 213.17 34.744 213.17 36.952C213.17 42.088 211.37 46 207.77 48.688C204.218 51.376 199.754 52.72 194.378 52.72C192.122 52.72 189.746 52.48 187.25 52C184.802 51.52 182.906 51.04 181.562 50.56L179.546 49.84V37.24H185.306Z" fill="black"/>
<path d="M217.466 52V47.68L224.666 46.24V7.36001H215.306L213.506 14.56H208.826V1.6H248.066V14.56H243.386L241.586 7.36001H232.226V46.24L239.426 47.68V52H217.466Z" fill="black"/>
<path d="M264.646 0.880005C271.606 0.880005 277.054 3.136 280.99 7.648C284.974 12.16 286.966 18.304 286.966 26.08C286.966 34 284.758 40.432 280.342 45.376C275.926 50.272 270.214 52.72 263.206 52.72C256.15 52.72 250.726 50.536 246.934 46.168C243.142 41.752 241.246 35.416 241.246 27.16C241.246 19.192 243.358 12.832 247.582 8.08001C251.806 3.28001 257.494 0.880005 264.646 0.880005ZM264.286 7.00001C254.446 7.00001 249.526 13.6 249.526 26.8C249.526 40 254.206 46.6 263.566 46.6C268.366 46.6 272.086 44.92 274.726 41.56C277.366 38.152 278.686 33.112 278.686 26.44C278.686 13.48 273.886 7.00001 264.286 7.00001Z" fill="black"/>
<path d="M290.918 46.24V7.36001L284.798 5.92V1.96L298.478 1.6H306.398C311.486 1.6 315.446 2.75201 318.278 5.05601C321.158 7.36001 322.598 10.528 322.598 14.56C322.598 21.616 319.478 26.296 313.238 28.6C314.39 29.608 315.83 31.768 317.558 35.08L323.246 46.528L328.358 47.68V52H317.558L311.438 38.68C309.758 35.08 308.294 32.752 307.046 31.696C305.846 30.592 304.07 30.04 301.718 30.04H298.478V46.24L304.598 47.68V52H284.798V47.68L290.918 46.24ZM298.478 24.64H303.878C307.382 24.64 310.118 23.848 312.086 22.264C314.054 20.68 315.038 18.472 315.038 15.64C315.038 13.24 314.198 11.272 312.518 9.73601C310.838 8.15201 308.678 7.36001 306.038 7.36001H298.478V24.64Z" fill="black"/>
<path d="M336.666 22.84H353.226V28.6H336.666V46.24H353.226L354.666 39.04H359.346V52H322.986V47.68L329.106 46.24V7.36001L322.986 5.92V1.96L336.666 1.6H358.626V13.84H353.946L352.146 7.36001H336.666V22.84Z" fill="black"/>
</svg>
