<svg fill="none" height="66" viewBox="0 0 85 66" width="85" xmlns="http://www.w3.org/2000/svg"><path d="m15.4255 65.5816v-4.3668c.0255-.3672-.0276-.7357-.1557-1.0808-.1282-.3451-.3284-.659-.5873-.9207s-.5706-.4652-.9144-.5969c-.3437-.1318-.7116-.1888-1.0791-.1672-.481-.0316-.9617.0666-1.3919.2843-.4301.2176-.794.5467-1.0535.9529-.2366-.394-.57511-.7169-.97987-.9347-.40477-.2177-.86078-.3223-1.31998-.3025-.40028-.0203-.79889.0645-1.15634.2457-.35745.1813-.66132.4529-.8815.7878v-.8589h-1.51382v6.9578h1.52838v-3.8282c-.03251-.2379-.01206-.4801.0599-.7092s.19364-.4395.35635-.6161.36242-.3151.58487-.4056.46214-.1307.70193-.1177c1.00436 0 1.51382.655 1.51382 1.834v3.8719h1.52836v-3.8573c-.0312-.2377-.0098-.4793.0627-.7079.0724-.2285.1942-.4383.3566-.6146s.3616-.3148.5834-.4058c.2218-.0909.4609-.1319.7004-.1203 1.0334 0 1.5284.655 1.5284 1.834v3.8719zm22.6128-6.9578h-2.4891v-2.1106h-1.5284v2.1106h-1.3828v1.3829h1.4119v3.2023c0 1.6157.6259 2.5764 2.4163 2.5764.6689.0022 1.3248-.1844 1.8923-.5386l-.4367-1.2955c-.4059.2422-.8667.3774-1.3391.3931-.7278 0-1.0044-.4658-1.0044-1.1645v-3.1732h2.4745zm12.9111-.1746c-.3691-.0109-.7343.078-1.057.2574-.3228.1793-.5913.4424-.777.7615v-.8443h-1.4993v6.9578h1.5138v-3.901c0-1.1499.4949-1.7904 1.4556-1.7904.3238-.0044.6453.0549.9462.1747l.4658-1.4556c-.3458-.1237-.71-.1877-1.0772-.1892zm-19.5196.7278c-.8568-.5095-1.8421-.7621-2.8384-.7278-1.7613 0-2.9112.8442-2.9112 2.227 0 1.1354.8443 1.8341 2.4018 2.0524l.7278.1019c.8297.1165 1.2227.3348 1.2227.7278 0 .5386-.5532.8443-1.5866.8443-.8313.024-1.6465-.2323-2.3144-.7278l-.7278 1.179c.8818.6157 1.938.9321 3.0131.9025 2.0087 0 3.1732-.9462 3.1732-2.2708 0-1.3245-.9171-1.8631-2.4309-2.0815l-.7278-.1018c-.655-.0874-1.179-.2184-1.179-.6842s.4949-.8151 1.3246-.8151c.7668.0089 1.5186.2144 2.1834.5968zm40.5458-.7278c-.3691-.0109-.7343.078-1.0571.2574-.3228.1793-.5912.4424-.777.7615v-.8443h-1.4993v6.9578h1.5139v-3.901c0-1.1499.4949-1.7904 1.4556-1.7904.3237-.0044.6452.0549.9461.1747l.4658-1.4556c-.3457-.1237-.71-.1877-1.0772-.1892zm-19.5051 3.639c-.018.4889.0663.9762.2474 1.4308.1812.4545.4552.8662.8046 1.2087s.7664.6083 1.2244.7805c.458.1721.9469.2467 1.4354.219.9089.0462 1.8022-.2498 2.5036-.8297l-.7278-1.2227c-.5233.399-1.1614.6186-1.8195.6259-.5595-.0453-1.0815-.2995-1.4622-.7122-.3806-.4127-.5919-.9535-.5919-1.5149s.2113-1.1022.5919-1.5149c.3807-.4126.9027-.6669 1.4622-.7121.6581.0073 1.2962.2268 1.8195.6259l.7278-1.2227c-.7014-.58-1.5947-.876-2.5036-.8297-.4885-.0277-.9774.0469-1.4354.219s-.875.4379-1.2244.7804c-.3494.3426-.6234.7543-.8046 1.2088-.1811.4545-.2654.9418-.2474 1.4308zm14.1776 0v-3.4644h-1.5139v.8443c-.257-.3308-.5891-.5957-.9687-.7729-.3797-.1771-.796-.2615-1.2147-.246-.9651 0-1.8907.3834-2.5731 1.0658-.6825.6825-1.0659 1.6081-1.0659 2.5732s.3834 1.8907 1.0659 2.5731c.6824.6825 1.608 1.0659 2.5731 1.0659.4187.0154.835-.0689 1.2147-.2461.3796-.1772.7117-.4421.9687-.7728v.8442h1.5139zm-5.6332 0c.0241-.4096.1675-.8031.4125-1.1322s.5809-.5794.9663-.72.8035-.1655 1.2029-.0714c.3993.094.7624.3027 1.0447.6005.2822.2978.4711.6716.5436 1.0754.0724.4038.0252.82-.1359 1.1973s-.429.6993-.7708.9263c-.3417.2269-.7424.349-1.1527.3511-.2882.0037-.574-.0523-.8394-.1645-.2655-.1122-.5049-.2781-.7031-.4872-.1983-.2092-.3511-.4572-.4488-.7283-.0978-.2711-.1384-.5595-.1193-.847zm-18.2678-3.639c-.9651.0135-1.8853.4098-2.5582 1.1018s-1.0433 1.623-1.0298 2.5881.4098 1.8854 1.1018 2.5583c.692.6728 1.623 1.0433 2.5881 1.0298 1.0471.0537 2.0769-.2835 2.8894-.9462l-.7278-1.1208c-.5747.4609-1.2867.717-2.0233.7278-.5004.0431-.9978-.1108-1.3866-.4288-.3887-.3181-.638-.7752-.6949-1.2742h5.1674c0-.1893 0-.3785 0-.5823 0-2.1834-1.3537-3.639-3.3042-3.639zm0 1.3537c.2266-.0048.4518.035.6629.1173.2112.0822.404.2052.5676.362.1635.1568.2946.3443.3857.5518s.1404.4309.1451.6574h-3.639c.0264-.4672.2346-.9055.5801-1.2211s.8008-.4834 1.2685-.4674zm37.9257 2.2998v-6.2736h-1.4556v3.639c-.2571-.3308-.5892-.5957-.9688-.7729-.3797-.1771-.796-.2615-1.2146-.246-.9652 0-1.8908.3834-2.5732 1.0658-.6824.6825-1.0658 1.6081-1.0658 2.5732s.3834 1.8907 1.0658 2.5731c.6824.6825 1.608 1.0659 2.5732 1.0659.4186.0154.8349-.0689 1.2146-.2461.3796-.1772.7117-.4421.9688-.7728v.8442h1.4556zm2.5254 2.4673c.0946-.0012.1886.0161.2766.0509.0836.0341.1601.0835.2256.1456.064.0627.1158.1368.1528.2183.0369.085.0559.1767.0559.2693s-.019.1843-.0559.2693c-.037.0816-.0888.1556-.1528.2183-.0655.0621-.142.1115-.2256.1456-.0871.0384-.1813.0583-.2766.0582-.1379-.001-.2728-.0413-.3887-.116-.116-.0747-.2083-.1809-.2663-.3061-.0364-.0851-.0552-.1767-.0552-.2693s.0188-.1842.0552-.2693c.0371-.0815.0889-.1556.1528-.2183.0656-.0621.1421-.1115.2257-.1456.0947-.0377.1964-.055.2984-.0509zm0 1.23c.0727.0004.1446-.0145.2111-.0437.0626-.028.1194-.0675.1674-.1165.091-.0993.1415-.2291.1415-.3639 0-.1347-.0505-.2645-.1415-.3639-.0479-.0491-.1047-.0886-.1674-.1164-.0666-.029-.1385-.0439-.2111-.0437-.0725.0004-.1443.0153-.211.0437-.0654.0268-.1248.0664-.1747.1164-.091.0994-.1415.2292-.1415.3639 0 .1348.0505.2646.1415.3639.05.0499.1094.0895.1747.1165.0734.0317.1529.0466.2329.0437zm.0437-.8661c.0679-.0033.1349.0173.1892.0582.0223.0184.0399.0419.0513.0685.0113.0266.0162.0555.0142.0843.0011.0242-.0029.0483-.0117.0709-.0088.0225-.0221.043-.0392.0601-.0422.0384-.096.0614-.1529.0655l.2111.2402h-.1674l-.1965-.2402h-.0655v.2402h-.1383v-.6405zm-.1601.1237v.1747h.1601c.0285.0085.0588.0085.0873 0 .0051-.0102.0078-.0214.0078-.0328s-.0027-.0226-.0078-.0327c.0051-.0102.0078-.0214.0078-.0328s-.0027-.0226-.0078-.0327c-.0285-.0085-.0588-.0085-.0873 0zm-8.0058-2.9549c.0241-.4095.1675-.8031.4125-1.1322s.5808-.5793.9663-.7199c.3854-.1407.8035-.1655 1.2028-.0715.3994.094.7625.3028 1.0447.6006.2823.2977.4712.6715.5437 1.0754.0724.4038.0252.82-.1359 1.1973s-.429.6993-.7708.9262c-.3418.227-.7424.3491-1.1527.3512-.2882.0036-.574-.0524-.8394-.1646-.2655-.1121-.5049-.278-.7031-.4872-.1983-.2092-.3511-.4571-.4488-.7282-.0978-.2711-.1384-.5595-.1193-.8471zm-51.1134 0v-3.4789h-1.5138v.8443c-.2571-.3308-.5891-.5957-.9688-.7729-.3796-.1771-.7959-.2615-1.2146-.246-.9651 0-1.8907.3834-2.5732 1.0658-.6824.6825-1.0658 1.6081-1.0658 2.5732s.3834 1.8907 1.0658 2.5731c.6825.6825 1.6081 1.0659 2.5732 1.0659.4187.0154.835-.0689 1.2146-.2461.3797-.1772.7117-.4421.9688-.7728v.8442h1.5138zm-5.6331 0c.0241-.4095.1675-.8031.4125-1.1322.2449-.3291.5808-.5793.9662-.7199.3854-.1407.8036-.1655 1.2029-.0715.3994.094.7625.3028 1.0447.6006.2822.2977.4712.6715.5436 1.0754.0725.4038.0252.82-.1358 1.1973-.1611.3773-.4291.6993-.7708.9262-.3418.227-.7425.3491-1.1527.3512-.2894.0057-.5768-.0488-.844-.1601s-.5084-.2769-.7082-.4863-.3539-.458-.4526-.7301c-.0986-.2721-.1396-.5618-.1204-.8506z" fill="#a0a0a0"/><path d="m53.8534 5.60327h-22.9257v41.20073h22.9257z" fill="#bbb"/><path d="m32.3832 26.2071c-.0042-3.9685.8946-7.8859 2.6284-11.4556s4.2571-6.69816 7.3789-9.14838c-3.8653-3.03768-8.5072-4.926631-13.3952-5.450966s-9.825.337099-14.2466 2.485846c-4.4216 2.14876-8.14944 5.49813-10.75753 9.6653-2.60809 4.1672-3.99117 8.9841-3.99117 13.9002 0 4.916 1.38308 9.7329 3.99117 13.9001s6.33593 7.5166 10.75753 9.6654c4.4216 2.1487 9.3586 3.0101 14.2466 2.4858s9.5299-2.4133 13.3952-5.451c-3.1208-2.4494-5.6436-5.5767-7.3773-9.145-1.7338-3.5684-2.6331-7.4844-2.63-11.4517z" fill="#a0a0a0"/><path d="m84.7849 26.2075c-.0001 4.9164-1.3835 9.7336-3.992 13.9009-2.6086 4.1674-6.337 7.5167-10.7592 9.6651-4.4221 2.1485-9.3595 3.0094-14.2479 2.4843-4.8883-.5251-9.5302-2.415-13.3952-5.4536 3.1196-2.4516 5.6416-5.5798 7.3758-9.1483 1.7342-3.5686 2.6353-7.4844 2.6353-11.4521 0-3.9676-.9011-7.8834-2.6353-11.452s-4.2562-6.6967-7.3758-9.14834c3.865-3.03863 8.5069-4.928495 13.3952-5.453583 4.8884-.525088 9.8258.335792 14.2479 2.484233 4.4222 2.14845 8.1506 5.49777 10.7592 9.66509 2.6085 4.1674 3.9919 8.9846 3.992 13.901z" fill="#d5d5d5"/><path d="m82.2809 42.4374v-.8443h.342v-.1746h-.8661v.1746h.3712v.8443zm1.6812 0v-1.0189h-.262l-.3057.7278-.3057-.7278h-.2329v1.0189h.1892v-.7642l.2839.6623h.1965l.2838-.6623v.7715z" fill="#a0a0a0"/></svg>