<svg fill="none" height="35" viewBox="0 0 114 35" width="114" xmlns="http://www.w3.org/2000/svg"><g fill="#a0a0a0"><path d="m40.7588 34.1884 5.7302-33.60881h9.1427l-5.7303 33.60881z"/><path d="m83.1241 1.41646c-1.8028-.708228-4.6357-1.41646-8.1769-1.41646-9.0782 0-15.4523 4.57131-15.4523 11.0742-.0644 4.8288 4.5713 7.533 8.0481 9.1426 3.5412 1.674 4.7645 2.7042 4.7645 4.185 0 2.2535-2.833 3.2836-5.4727 3.2836-3.67 0-5.6015-.5151-8.6276-1.7384l-1.2877-.5794-1.2877 7.533c2.1247.9658 6.1166 1.7384 10.2372 1.8028 9.6577 0 15.903-4.507 15.9674-11.4605.0644-3.7987-2.3822-6.7604-7.6618-9.1427-3.2192-1.5452-5.1507-2.5753-5.1507-4.18496 0-1.41646 1.674-2.89731 5.2151-2.89731 3.0261-.06438 5.1508.57946 6.8248 1.2877l.837.3863z"/><path d="m106.624.643799h-7.082c-2.1891 0-3.8631.579461-4.8289 2.768541l-13.5852 30.77586h9.5933s1.5453-4.1206 1.9316-5.022h11.7182c.257 1.1589 1.094 5.022 1.094 5.022h8.499zm-11.2671 21.633301c.7727-1.9316 3.67-9.4002 3.67-9.4002-.0644.0644.7726-1.9315 1.2231-3.21924l.644 2.89734s1.738 8.0481 2.125 9.7221z"/><path d="m33.0961.57959-9.0139 22.92091-.9657-4.6357c-1.6096-5.3439-6.8248-11.20289-12.6194-14.1002l8.1768 29.4238h9.7221l14.4222-33.60881z"/><path d="m15.7772.579346h-14.74413l-.128773.708234c11.524903 2.76854 19.122303 9.52892 22.277103 17.57702l-3.2192-15.45233c-.5795-2.12469-2.1891-2.76854-4.185-2.832924z"/></g></svg>