<svg fill="none" height="47" viewBox="0 0 116 47" width="116" xmlns="http://www.w3.org/2000/svg"><g fill="#ffffff" transform="matrix(.097329 0 0 .097329 -28.740465 -37.76368)"><path d="m359.245 806.023c.674 0 1.257.244 1.747.731.49.488.735 1.066.735 1.736 0 .305-.061.579-.184.823l-21.786 38.103v20.102c0 .67-.246 1.249-.736 1.736-.49.488-1.072.731-1.746.731h-7.355c-.674 0-1.256-.243-1.746-.731-.491-.487-.736-1.066-.736-1.736v-20.102l-21.786-38.103c-.123-.244-.184-.518-.184-.823 0-.67.245-1.248.735-1.736.49-.487 1.073-.731 1.747-.731h6.894c1.226 0 2.145.305 2.758.914s.981 1.066 1.103 1.371l14.892 25.859 14.893-25.859c.122-.305.49-.762 1.103-1.371s1.532-.914 2.758-.914z"/><path d="m375.14 829.872c.184-3.411.827-6.609 1.93-9.594 1.165-3.046 2.85-5.666 5.056-7.859 2.207-2.253 4.965-4.02 8.274-5.299 3.309-1.34 7.232-2.011 11.767-2.011 4.473 0 8.365.64 11.674 1.919 3.31 1.28 6.068 3.046 8.274 5.3s3.891 4.873 5.056 7.858c1.164 2.985 1.838 6.214 2.022 9.686.062 1.157.092 2.437.092 3.838.061 1.401.092 2.863.092 4.386 0 1.462-.031 2.893-.092 4.294 0 1.401-.03 2.681-.092 3.838-.184 3.411-.858 6.64-2.022 9.686-1.103 2.985-2.758 5.604-4.964 7.858-2.206 2.193-4.995 3.929-8.366 5.208-3.309 1.279-7.201 1.919-11.674 1.919-4.535 0-8.458-.64-11.767-1.919s-6.067-3.015-8.274-5.208c-2.206-2.254-3.891-4.873-5.056-7.858-1.103-3.046-1.746-6.275-1.93-9.686-.061-1.157-.123-2.437-.184-3.838 0-1.401 0-2.832 0-4.294 0-1.523 0-2.985 0-4.386.061-1.401.123-2.681.184-3.838zm41.643.457c-.245-4.386-1.685-7.767-4.32-10.143-2.574-2.436-6.006-3.655-10.296-3.655s-7.753 1.219-10.388 3.655c-2.574 2.376-3.984 5.757-4.229 10.143-.122 2.315-.184 4.904-.184 7.767 0 2.802.062 5.36.184 7.675.245 4.386 1.655 7.767 4.229 10.143 2.635 2.375 6.098 3.563 10.388 3.563s7.722-1.188 10.296-3.563c2.635-2.376 4.075-5.757 4.32-10.143.123-2.315.184-4.873.184-7.675 0-2.863-.061-5.452-.184-7.767z"/><path d="m500.28 806.023c.674 0 1.256.244 1.746.731.491.488.736 1.066.736 1.736v37.464c0 3.777-.552 7.188-1.655 10.234s-2.758 5.665-4.964 7.858-4.964 3.899-8.273 5.117c-3.31 1.157-7.14 1.736-11.491 1.736-4.413 0-8.274-.579-11.583-1.736-3.248-1.218-5.976-2.924-8.182-5.117s-3.861-4.812-4.964-7.858c-1.042-3.046-1.563-6.457-1.563-10.234v-37.464c0-.67.246-1.248.736-1.736.49-.487 1.072-.731 1.746-.731h7.447c.674 0 1.256.244 1.746.731.49.488.736 1.066.736 1.736v37.007c0 2.498.337 4.63 1.011 6.396.674 1.767 1.624 3.229 2.85 4.386 1.225 1.097 2.696 1.919 4.412 2.467 1.716.488 3.585.731 5.608.731 2.022 0 3.891-.243 5.607-.731 1.777-.548 3.279-1.37 4.505-2.467 1.225-1.157 2.175-2.619 2.849-4.386.736-1.766 1.103-3.898 1.103-6.396v-37.007c0-.67.246-1.248.736-1.736.49-.487 1.072-.731 1.747-.731z"/><path d="m552.012 806.023c7.66 0 13.483 1.767 17.466 5.3 3.984 3.533 5.975 8.437 5.975 14.711 0 4.447-1.042 8.254-3.125 11.422-2.023 3.107-5.026 5.422-9.009 6.944l12.686 22.57c.184.365.276.7.276 1.005 0 .548-.215 1.036-.644 1.462-.368.366-.827.548-1.379.548h-7.814c-1.225 0-2.145-.274-2.757-.822-.552-.609-.95-1.157-1.195-1.645l-12.043-21.29h-12.226v21.29c0 .67-.245 1.249-.736 1.736-.49.488-1.072.731-1.746.731h-7.446c-.675 0-1.257-.243-1.747-.731-.49-.487-.735-1.066-.735-1.736v-59.028c0-.67.245-1.248.735-1.736.49-.487 1.072-.731 1.747-.731zm-13.789 28.783h13.329c3.493 0 6.282-.609 8.366-1.827 2.083-1.219 3.125-3.533 3.125-6.945 0-3.411-1.042-5.695-3.125-6.853-2.084-1.157-4.873-1.736-8.366-1.736h-13.329z"/><path d="m648.762 805.109c4.106 0 7.722.549 10.847 1.645 3.126 1.097 5.73 2.467 7.814 4.112s3.647 3.472 4.688 5.483c1.104 1.949 1.716 3.807 1.839 5.573.061.731-.184 1.341-.736 1.828-.49.426-1.072.639-1.746.639h-6.435c-1.042 0-1.839-.182-2.39-.548-.49-.426-.95-.974-1.379-1.644-.919-1.523-2.329-2.833-4.229-3.93-1.838-1.157-4.596-1.736-8.273-1.736-1.594 0-3.126.183-4.597.548-1.409.305-2.665.792-3.769 1.463-1.041.609-1.869 1.37-2.482 2.284-.612.914-.919 1.949-.919 3.107 0 1.401.276 2.558.827 3.472.613.853 1.594 1.614 2.942 2.284 1.41.609 3.248 1.188 5.516 1.736 2.267.549 5.086 1.188 8.457 1.919 3.677.792 6.833 1.736 9.469 2.833 2.696 1.035 4.872 2.315 6.526 3.837 1.716 1.463 2.973 3.168 3.769 5.117.858 1.95 1.287 4.173 1.287 6.671 0 2.741-.612 5.3-1.838 7.675-1.226 2.315-2.972 4.325-5.24 6.031-2.267 1.645-5.056 2.954-8.365 3.929-3.31.975-7.017 1.462-11.124 1.462-3.432 0-6.71-.396-9.836-1.188-3.125-.853-5.914-2.04-8.365-3.563-2.39-1.584-4.321-3.473-5.792-5.666-1.47-2.193-2.298-4.629-2.482-7.31-.061-.731.154-1.309.644-1.736.551-.487 1.164-.731 1.838-.731h6.435c1.042 0 1.839.183 2.39.549.552.365 1.012.913 1.379 1.644.429.792.95 1.584 1.563 2.376s1.44 1.492 2.482 2.102c1.042.609 2.329 1.127 3.861 1.553 1.594.365 3.555.548 5.883.548 1.839 0 3.616-.122 5.332-.365 1.716-.305 3.218-.762 4.505-1.371 1.287-.67 2.329-1.462 3.125-2.376.797-.974 1.195-2.162 1.195-3.563 0-1.34-.429-2.437-1.287-3.29s-2.175-1.584-3.953-2.193c-1.716-.609-3.861-1.188-6.435-1.736-2.573-.548-5.546-1.249-8.916-2.101-3.065-.731-5.761-1.584-8.09-2.559-2.268-1.035-4.167-2.284-5.7-3.746-1.47-1.462-2.574-3.168-3.309-5.117-.735-2.01-1.103-4.386-1.103-7.127 0-2.742.613-5.27 1.838-7.584 1.226-2.315 2.912-4.295 5.056-5.94 2.145-1.645 4.689-2.924 7.63-3.838 3.003-.974 6.221-1.462 9.653-1.462z"/><path d="m724.655 839.558-7.906 27.321c-.306.913-.705 1.675-1.195 2.284-.429.548-1.103.822-2.022.822h-7.446c-.92 0-1.655-.274-2.207-.822-.49-.609-.827-1.371-1.011-2.284l-11.766-57.658c-.062-.304-.092-.548-.092-.731 0-.67.245-1.248.735-1.736.49-.487 1.073-.731 1.747-.731h6.802c.613 0 1.195.183 1.747.548.551.366.919 1.006 1.103 1.919l7.722 38.743 6.803-24.397c.122-.426.398-.975.827-1.645.49-.67 1.287-1.005 2.39-1.005h7.538c1.103 0 1.869.335 2.298 1.005.491.67.797 1.219.92 1.645l6.802 24.397 7.722-38.743c.184-.913.552-1.553 1.103-1.919.552-.365 1.134-.548 1.747-.548h6.802c.675 0 1.257.244 1.747.731.49.488.735 1.066.735 1.736 0 .183-.03.427-.091.731l-11.767 57.658c-.184.913-.552 1.675-1.103 2.284-.491.548-1.195.822-2.115.822h-7.446c-.919 0-1.624-.274-2.114-.822-.429-.609-.797-1.371-1.103-2.284z"/><path d="m820.697 858.564c.674 0 1.256.243 1.746.73.491.488.736 1.067.736 1.737v6.487c0 .67-.245 1.249-.736 1.736-.49.488-1.072.731-1.746.731h-40.356c-.674 0-1.257-.243-1.747-.731-.49-.487-.735-1.066-.735-1.736v-59.028c0-.67.245-1.248.735-1.736.49-.487 1.073-.731 1.747-.731h39.62c.675 0 1.257.244 1.747.731.49.488.735 1.066.735 1.736v6.488c0 .67-.245 1.249-.735 1.736s-1.072.731-1.747.731h-29.692v14.529h27.67c.674 0 1.256.243 1.747.731.49.487.735 1.066.735 1.736v6.487c0 .67-.245 1.249-.735 1.736-.491.488-1.073.731-1.747.731h-27.67v15.169z"/><path d="m886.626 858.564c.674 0 1.256.243 1.747.73.49.488.735 1.067.735 1.737v6.487c0 .67-.245 1.249-.735 1.736-.491.488-1.073.731-1.747.731h-40.356c-.674 0-1.256-.243-1.747-.731-.49-.487-.735-1.066-.735-1.736v-59.028c0-.67.245-1.248.735-1.736.491-.487 1.073-.731 1.747-.731h39.621c.674 0 1.256.244 1.746.731.491.488.736 1.066.736 1.736v6.488c0 .67-.245 1.249-.736 1.736-.49.487-1.072.731-1.746.731h-29.693v14.529h27.67c.674 0 1.257.243 1.747.731.49.487.735 1.066.735 1.736v6.487c0 .67-.245 1.249-.735 1.736-.49.488-1.073.731-1.747.731h-27.67v15.169z"/><path d="m952.555 806.023c.674 0 1.257.244 1.747.731.49.488.735 1.066.735 1.736v6.488c0 .67-.245 1.249-.735 1.736s-1.073.731-1.747.731h-16.547v50.073c0 .67-.245 1.249-.735 1.736-.49.488-1.073.731-1.747.731h-7.446c-.674 0-1.256-.243-1.747-.731-.49-.487-.735-1.066-.735-1.736v-50.073h-16.547c-.674 0-1.256-.244-1.746-.731-.491-.487-.736-1.066-.736-1.736v-6.488c0-.67.245-1.248.736-1.736.49-.487 1.072-.731 1.746-.731z"/><path d="m1029 806.023c.98 0 1.71.274 2.2.823.49.487.92 1.248 1.29 2.284l22.52 57.749c.06.182.1.396.1.639 0 .67-.25 1.249-.74 1.736-.49.488-1.07.731-1.75.731h-6.62c-1.22 0-2.08-.243-2.57-.731-.49-.548-.83-1.066-1.01-1.553l-3.95-10.143h-29.05l-3.96 10.143c-.18.487-.52 1.005-1.01 1.553-.49.488-1.35.731-2.57.731h-6.62c-.674 0-1.256-.243-1.746-.731-.49-.487-.736-1.066-.736-1.736 0-.243.031-.457.092-.639l22.52-57.749c.37-1.036.8-1.797 1.29-2.284.49-.549 1.23-.823 2.21-.823zm5.05 40.114-10.11-26.042-10.11 26.042z"/><path d="m1097.86 806.023c4.54 0 8.46.609 11.77 1.828 3.37 1.157 6.16 2.832 8.36 5.025 2.27 2.193 3.99 4.843 5.15 7.95 1.23 3.107 1.96 6.579 2.21 10.417.24 4.507.24 9.015 0 13.523-.25 3.838-.98 7.31-2.21 10.417-1.16 3.106-2.85 5.756-5.06 7.949-2.2 2.193-4.96 3.899-8.27 5.117-3.25 1.158-7.08 1.736-11.49 1.736h-23.17c-.67 0-1.25-.243-1.74-.731-.49-.487-.74-1.066-.74-1.736v-59.028c0-.67.25-1.248.74-1.736.49-.487 1.07-.731 1.74-.731zm15.08 25.22c-.13-1.95-.52-3.747-1.2-5.392-.61-1.705-1.56-3.167-2.85-4.386-1.22-1.279-2.79-2.253-4.69-2.923-1.9-.731-4.16-1.097-6.8-1.097h-12.32v41.119h12.78c2.51 0 4.69-.336 6.53-1.006 1.84-.731 3.37-1.705 4.59-2.924 1.23-1.218 2.15-2.68 2.76-4.386.68-1.705 1.07-3.533 1.2-5.482.24-4.508.24-9.016 0-13.523z"/><path d="m1167.79 851.893 15.44-43.585c.18-.488.49-.975.92-1.462.49-.549 1.19-.823 2.11-.823h6.99c.67 0 1.26.244 1.75.731.49.488.73 1.066.73 1.736v.366c0 .061-.06.243-.18.548l-20.59 57.475c-.37 1.035-.8 1.827-1.29 2.375-.49.488-1.23.731-2.21.731h-7.35c-.98 0-1.72-.243-2.21-.731-.49-.548-.92-1.34-1.28-2.375l-20.6-57.475c-.12-.305-.18-.487-.18-.548 0-.122 0-.244 0-.366 0-.67.25-1.248.74-1.736.49-.487 1.07-.731 1.74-.731h6.99c.92 0 1.59.274 2.02.823.49.487.83.974 1.01 1.462z"/><path d="m1240.25 806.023c.98 0 1.72.274 2.21.823.49.487.92 1.248 1.28 2.284l22.53 57.749c.06.182.09.396.09.639 0 .67-.25 1.249-.74 1.736-.49.488-1.07.731-1.74.731h-6.62c-1.23 0-2.09-.243-2.58-.731-.49-.548-.82-1.066-1.01-1.553l-3.95-10.143h-29.05l-3.95 10.143c-.19.487-.52 1.005-1.01 1.553-.49.488-1.35.731-2.58.731h-6.62c-.67 0-1.25-.243-1.74-.731-.49-.487-.74-1.066-.74-1.736 0-.243.03-.457.09-.639l22.53-57.749c.36-1.036.79-1.797 1.28-2.284.49-.549 1.23-.823 2.21-.823zm5.06 40.114-10.11-26.042-10.12 26.042z"/><path d="m1325.66 869.985c-1.04 0-1.84-.274-2.39-.822s-.95-.975-1.19-1.279l-25.74-38.012v37.646c0 .67-.25 1.249-.74 1.736-.49.488-1.07.731-1.75.731h-7.44c-.68 0-1.26-.243-1.75-.731-.49-.487-.73-1.066-.73-1.736v-59.028c0-.67.24-1.248.73-1.736.49-.487 1.07-.731 1.75-.731h6.43c1.04 0 1.84.274 2.39.823.55.548.95.974 1.2 1.279l25.74 38.012v-37.647c0-.67.24-1.248.73-1.736.49-.487 1.08-.731 1.75-.731h7.45c.67 0 1.25.244 1.74.731.49.488.74 1.066.74 1.736v59.028c0 .67-.25 1.249-.74 1.736-.49.488-1.07.731-1.74.731z"/><path d="m1397.64 849.7c.13-.792.43-1.37.92-1.736.55-.426 1.14-.64 1.75-.64h7.45c.67 0 1.25.244 1.74.731.55.427.8 1.006.74 1.737-.19 2.497-.83 4.995-1.93 7.492-1.05 2.498-2.67 4.752-4.88 6.762-2.2 2.01-4.99 3.655-8.36 4.934s-7.45 1.919-12.23 1.919c-4.23 0-7.96-.609-11.21-1.827-3.25-1.28-6.01-3.016-8.28-5.209-2.26-2.254-4.04-4.934-5.33-8.041-1.22-3.106-1.96-6.487-2.2-10.142-.13-2.315-.19-4.874-.19-7.676s.06-5.36.19-7.675c.24-3.655.98-7.036 2.2-10.143 1.29-3.106 3.07-5.756 5.33-7.949 2.27-2.254 5.03-3.99 8.28-5.209 3.25-1.279 6.98-1.919 11.21-1.919 4.78 0 8.86.64 12.23 1.919 3.37 1.28 6.16 2.924 8.36 4.935 2.21 2.01 3.83 4.294 4.88 6.853 1.1 2.497 1.74 4.964 1.93 7.401.06.731-.19 1.34-.74 1.827-.49.427-1.07.64-1.74.64h-7.45c-.61 0-1.2-.183-1.75-.548-.55-.427-.89-1.036-1.01-1.828-.18-1.218-.61-2.406-1.29-3.563-.67-1.158-1.59-2.193-2.75-3.107-1.17-.914-2.64-1.645-4.42-2.193-1.77-.609-3.86-.914-6.25-.914s-4.47.366-6.25 1.097-3.28 1.705-4.5 2.924c-1.17 1.218-2.09 2.68-2.76 4.386-.61 1.705-.98 3.502-1.1 5.391-.13 2.315-.19 4.873-.19 7.675s.06 5.361.19 7.676c.12 1.949.49 3.777 1.1 5.482.67 1.645 1.59 3.076 2.76 4.295 1.22 1.218 2.72 2.193 4.5 2.924s3.86 1.096 6.25 1.096 4.48-.274 6.25-.822c1.78-.609 3.25-1.371 4.42-2.284 1.22-.914 2.17-1.95 2.85-3.107.67-1.158 1.1-2.345 1.28-3.564z"/><path d="m1472.99 858.564c.67 0 1.25.243 1.74.73.49.488.74 1.067.74 1.737v6.487c0 .67-.25 1.249-.74 1.736-.49.488-1.07.731-1.74.731h-40.36c-.67 0-1.26-.243-1.75-.731-.49-.487-.73-1.066-.73-1.736v-59.028c0-.67.24-1.248.73-1.736.49-.487 1.08-.731 1.75-.731h39.62c.67 0 1.26.244 1.75.731.49.488.73 1.066.73 1.736v6.488c0 .67-.24 1.249-.73 1.736s-1.08.731-1.75.731h-29.69v14.529h27.67c.67 0 1.25.243 1.74.731.5.487.74 1.066.74 1.736v6.487c0 .67-.24 1.249-.74 1.736-.49.488-1.07.731-1.74.731h-27.67v15.169z"/><path d="m1075.4 680.264c-.9 25.866-15.26 40.136-30.51 40.136-20.64 0-34.1-16.946-58.327-61.542-10.767 13.379-20.638 25.866-28.714 35.677-12.562 15.162-24.227 24.973-38.584 24.973-15.255 0-20.638-11.595-20.638-26.757 0-33.893 8.973-140.923 1.794-186.411 7.179-4.459 17.947-7.135 26.022-7.135 26.022 0 34.098 17.838 34.098 48.164 0 20.514-2.692 59.758-5.384 78.488 40.379-57.974 64.603-99.894 73.583-124.868 27.81-4.46 42.17 8.919 42.17 29.433 0 21.406-13.46 41.92-49.35 83.84 22.43 39.245 38.58 60.651 53.84 66.002z"/><path d="m702.23 611.586c0-66.002 33.2-111.489 89.731-111.489s86.142 45.487 86.142 108.813c0 66.002-31.406 113.273-89.731 113.273-51.147 0-86.142-39.244-86.142-110.597zm54.736.892c0 38.352 10.768 59.758 33.201 59.758 22.432 0 33.2-23.19 33.2-65.11 0-31.217-7.178-57.082-31.406-57.082-23.33 0-34.995 23.19-34.995 62.434z"/><path d="m1271.13 680.265c-.9 25.866-15.26 40.137-30.51 40.137-20.64 0-33.2-16.947-54.74-61.543-10.77 13.379-20.64 24.974-27.81 34.785-12.57 15.163-24.23 24.974-38.59 24.974-15.25 0-20.64-11.595-20.64-26.758 0-33.892 8.98-140.922 1.8-186.41 7.18-4.46 17.94-7.135 26.02-7.135 26.02 0 34.1 17.838 34.1 48.163 0 20.514-2.69 59.758-5.39 78.489 40.38-57.975 64.61-99.895 73.58-124.868 27.82-4.46 42.18 8.919 42.18 29.433 0 21.406-14.36 41.92-49.36 84.732 19.75 38.352 34.1 61.542 49.36 66.001z"/><path d="m1461.35 660.641c5.39 25.866 13.46 47.272 16.16 52.623-6.28 5.352-16.16 8.919-28.72 8.919-28.71 0-36.79-15.162-43.07-57.974-17.05.892-34.1 1.784-49.35 2.676-8.08 42.812-17.05 54.407-41.28 54.407-11.66 0-21.53-3.568-26.92-11.595 4.49-8.028 8.98-24.974 17.05-62.434 7.18-35.677 18.85-83.84 29.61-108.814 9.87-22.298 23.33-38.352 52.95-38.352 46.66 0 55.63 37.46 66.4 115.949 11.66-1.784 19.74-2.676 25.12-4.46 5.38 24.974.9 42.812-17.95 49.055zm-96.01-38.352c12.56-.892 24.23-1.784 35.89-1.784-4.48-43.704-6.28-71.353-13.45-77.597-6.29 4.46-14.36 33.893-22.44 79.381z"/><path d="m350.296 725.576c31.37-.495 46.308-26.232 44.815-78.202 0-3.959-.498-29.696-1.494-77.706-.498-19.798 1.494-34.646 5.477-44.05 3.486 6.434 7.967 18.808 13.942 36.626 5.478 18.313 10.955 33.161 15.935 45.04 4.481 12.373 12.448 23.262 22.905 33.656s21.909 15.343 35.354 14.848c12.946-.495 25.394-9.899 37.843-28.706 12.448-18.808 22.407-39.596 30.374-61.869 7.967-22.272 16.432-43.06 25.893-61.868 8.963-18.808 16.93-28.212 23.403-28.212 1.494 9.404 0 38.606-5.477 87.606-5.477 48.999-7.967 86.12-6.971 110.372.996 21.283 11.452 35.636 31.868 43.061 20.416 7.424 38.341 4.454 54.773-8.909-2.489-19.798-4.481-44.545-4.979-74.242-.498-15.343.498-38.606 1.992-70.282 1.494-31.677 1.992-54.444 1.494-68.798-1.992-65.332-19.42-101.958-74.691-99.978-21.412.494-37.346 9.403-51.288 31.181-7.469 11.384-12.947 21.283-17.428 30.687-4.482 9.404-10.457 22.767-17.926 41.08s-13.942 33.161-18.922 43.555c-1.493-3.464-3.983-10.394-7.469-21.777-7.469-22.273-11.452-34.152-21.411-56.919s-19.42-36.131-32.864-51.474c-13.943-15.344-30.872-22.768-49.296-22.273-21.412 0-39.338 8.909-53.28 27.222-.498 8.414-2.49 28.707-5.477 61.373-2.988 33.162-5.478 60.879-7.967 83.151-2.49 22.768-4.98 48.01-8.465 75.232-3.486 27.717-6.971 48.999-9.959 63.353 5.477 19.303 21.909 28.212 49.296 27.222z"/></g></svg>