<svg fill="none" height="25" viewBox="0 0 24 25" width="24" xmlns="http://www.w3.org/2000/svg"><g fill="#323232" opacity=".2"><path clip-rule="evenodd" d="m14.5 4.63232h-5v1.75c0 1.24264-1.00736 2.25-2.25 2.25s-2.25-1.00736-2.25-2.25v-1.75h-1.5c-.82843 0-1.5.67158-1.5 1.5v3.99998h20v-3.99998c0-.82842-.6716-1.5-1.5-1.5h-1.5v1.75c0 1.24264-1.0074 2.25-2.25 2.25s-2.25-1.00736-2.25-2.25zm7.5 7.49998h-20v8c0 .8285.67157 1.5 1.5 1.5h17c.8284 0 1.5-.6715 1.5-1.5z" fill-rule="evenodd"/><path d="m6.5 2.88232c0-.41421.33579-.75.75-.75s.75.33579.75.75v3.5c0 .41422-.33579.75-.75.75s-.75-.33578-.75-.75z"/><path d="m16 2.88232c0-.41421.3358-.75.75-.75s.75.33579.75.75v3.5c0 .41422-.3358.75-.75.75s-.75-.33578-.75-.75z"/></g></svg>