<svg fill="none" height="66" viewBox="0 0 76 66" width="76" xmlns="http://www.w3.org/2000/svg"><g fill="#000"><path d="m24.9899 44.0006h.0035c.0028 0 .0057-.0006.0086-.0006h39.887c.982 0 1.8454-.6514 2.1152-1.5956l8.8-30.8c.1897-.664.0567-1.3778-.3586-1.92898-.416-.55114-1.0662-.87542-1.7566-.87542h-53.7728l-1.5727-7.07724c-.224-1.006614-1.1166-1.72276-2.1478-1.72276h-13.20005c-1.21515 0-2.199996.984844-2.199996 2.2 0 1.21516.984846 2.2 2.199996 2.2h11.43545c.2784 1.25412 7.5258 33.868 7.9429 35.7443-2.3381 1.0163-3.9783 3.3475-3.9783 6.0557 0 3.6392 2.9608 6.6 6.6 6.6h39.8933c1.2152 0 2.2-.9848 2.2-2.2 0-1.2151-.9848-2.2-2.2-2.2h-39.8933c-1.2129 0-2.2-.9871-2.2-2.2 0-1.2111.9837-2.1965 2.1942-2.1994zm45.7824-30.8006-7.543 26.4h-36.4691l-5.8666-26.4z"/><path d="m22.7957 59.4001c0 3.6391 2.9609 6.6 6.6 6.6 3.6392 0 6.6-2.9609 6.6-6.6 0-3.6392-2.9608-6.6001-6.6-6.6001-3.6391 0-6.6 2.9609-6.6 6.6001zm6.6-2.2c1.2129 0 2.2.9871 2.2 2.2 0 1.2128-.9871 2.2-2.2 2.2-1.2128 0-2.2-.9872-2.2-2.2 0-1.2129.9872-2.2 2.2-2.2z"/><path d="m53.889 59.4001c0 3.6391 2.9608 6.6 6.6 6.6 3.6391 0 6.6-2.9609 6.6-6.6 0-3.6392-2.9609-6.6001-6.6-6.6001-3.6392 0-6.6 2.9609-6.6 6.6001zm6.6-2.2c1.2128 0 2.2.9871 2.2 2.2 0 1.2128-.9872 2.2-2.2 2.2-1.2129 0-2.2-.9872-2.2-2.2 0-1.2129.9871-2.2 2.2-2.2z"/></g></svg>