<svg fill="none" height="100" viewBox="0 0 100 100" width="100" xmlns="http://www.w3.org/2000/svg"><circle cx="50" cy="50" fill="#ff5a1e" r="50"/><path d="m28.6957 75.9884c4.8972-.0777 7.2292-4.1176 6.996-12.2751 0-.6215-.0777-4.6614-.2332-12.1974-.0777-3.1076.2332-5.4383.8551-6.9144.5441 1.01 1.2437 2.9522 2.1765 5.7491.8551 2.8745 1.7102 5.2052 2.4875 7.0698.6996 1.9423 1.9433 3.6514 3.5758 5.2829 1.6324 1.6315 3.4202 2.4084 5.5191 2.3307 2.021-.0777 3.9644-1.5538 5.9077-4.506 1.9434-2.9522 3.4981-6.2152 4.7418-9.7113 1.2437-3.496 2.5652-6.759 4.0422-9.7112 1.3992-2.9523 2.6429-4.4284 3.6535-4.4284.2332 1.4761 0 6.0598-.8551 13.7512-.8551 7.6913-1.2438 13.5181-1.0883 17.3249.1555 3.3407 1.7879 5.5937 4.975 6.759 3.1871 1.1654 5.9855.6992 8.5507-1.3984-.3887-3.1076-.6996-6.9921-.7773-11.6535-.0778-2.4084.0777-6.0598.3109-11.032s.3109-8.5459.2332-10.799c-.3109-10.2551-3.0316-16.0041-11.6601-15.6934-3.3425.0777-5.83 1.4761-8.0066 4.8945-1.166 1.7869-2.021 3.3407-2.7207 4.8168-.6996 1.4761-1.6324 3.5737-2.7984 6.4483-1.166 2.8745-2.1765 5.2052-2.9539 6.8367-.2332-.5438-.6218-1.6315-1.166-3.4183-1.166-3.4961-1.7878-5.3607-3.3425-8.9344-1.5547-3.5738-3.0316-5.6714-5.1305-8.0798-2.1765-2.4084-4.8195-3.5737-7.6956-3.4961-3.3426 0-6.141 1.3985-8.3175 4.273-.0778 1.3207-.3887 4.506-.8551 9.6336-.4664 5.2052-.8551 9.5559-1.2437 13.0519-.3887 3.5738-.7774 7.536-1.3215 11.8089-.5442 4.3507-1.0883 7.6914-1.5547 9.9444.8551 3.0299 3.4203 4.4283 7.6957 4.273z" fill="#fff"/></svg>