<svg fill="none" height="268" viewBox="0 0 385 268" width="385" xmlns="http://www.w3.org/2000/svg"><path d="m318.991 28.4925 15.206 45.0085c2.123 6.3292 1.702 16.6788-8.833 20.3858l-12.608 4.3694c1.199 3.5478 2.122 6.3288 3.321 9.8768 16.137 50.233 31.172 101.607 42.324 141.705 5.475 20.89.877 30.391-8.264 33.522l-21.688 7.572c-64.508 22.486-132.226 42.159-173.101 58.029-22.165 8.488-33.294-5.692-39.644-22.372-18.2699-47.132-34.8762-94.007-53.0972-143.443l-10.5293 3.64c-13.3049 4.657-17.091-1.929-18.0144-4.711l-15.701-46.401c-3.8169-11.27 5.7636-22.442 12.4833-25.614 10.5166-6.016 14.7417-7.47 28.0466-12.128l58.827-20.5272c-8.891-.854-18.277-3.1013-28.7882-6.4485-9.1903-3.8611-17.8311-8.6998-22.1124-16.6796-4.7095-9.368-5.4749-20.8899-.1196-30.607 3.7172-5.2235 7.4525-8.1389 12.3689-9.8145 12.6083-4.36945 27.8523 1.2916 39.5443 5.8786 11.986 7.6615 23.201 13.1634 32.631 22.4697.886-13.64 3.36-29.4704 8.208-42.956201 5.538-13.706599 16.213-28.462099 30.209-33.340599 6.304-2.1847 12.627-2.0614 18.961.4375 8.91 3.1621 14.775 9.0189 17.178 16.0472 4.031 11.9643.585 27.31653-6.569 38.4625-6.046 9.938-16.257 21.4031-25.574 30.966l16.839-5.8917c32.914-11.5001 57.935-18.6249 85.731-26.768 12.131-3.4544 19.438-.4774 22.765 9.3323zm-232.0013 20.3399c13.1593 6.4583 46.3873 12.1461 54.5873 13.221-2.373-2.3447-29.597-25.0295-40.861-28.2282-4.2382-.9207-7.2407-2.9722-10.292-2.7205-9.8562 1.1106-10.9557 14.0565-3.4343 17.7277zm77.6633 5.1397c13.543-11.0177 19.339-16.9711 37.009-34.1322 3.931-4.5294 11.433-14.97146 12.295-21.55724-.24-5.44515-7.284-10.03126-12.5-11.36276-32.66-4.3572-35.296 41.3813-36.804 67.0522z" fill="#fff"/><g fill="#ff5a1e"><path d="m160.83 255.474c3.831-1.319 7.604-3.811 11.066-7.218-1.658-4.371-3.946-12.104-7.122-23.45-3.277-11.142-6.506-23.152-9.944-35.772-3.437-12.62-5.673-20.2-6.299-22.541-4.626-15.107-15.773-14.167-25.731-10.739-10.671 4.355-16.003 12.326-19.579 23.952-1.31 4.2-2.162 7.731-2.711 10.646-.5483 2.916-1.1958 6.547-1.8901 11.046-.6944 4.5-1.2924 7.773-1.6927 9.615 3.1998 5.885 10.8848 8.352 17.1668 6.189 5.056-1.74 9.02-7.195 10.584-11.653s3.118-10.957 3.524-11.778l15.709 53.724c3.158 7.774 9.565 10.511 16.919 7.979zm47.632-15.205c24.82-8.544 35.31-18.461 31.47-29.749-1.816-5.339-5.924-8.356-12.168-9.103-3.714 4.175-9.373 8.168-16.72 12.231-7.346 4.063-12.348 6.466-15.108 6.905 8.184-10.656 11.234-14.773 17.827-26.586 3.093-5.495 5.32-10.522 6.679-15.08 2.923-9.016 3.838-20.918.464-30.834-5.396-15.865-19.638-19.994-35.724-14.456-9.04 3.112-16.483 8.401-22.228 15.662-5.694 7.413-7.347 14.628-5.011 21.492 1.712 5.034 5.817 7.541 12.16 7.572 10.213-14.251 19.176-22.619 26.888-25.104.892 4.635-.712 11.492-4.964 20.624-4.253 9.133-9.783 18.535-16.488 28.511-5.587 8.229-7.134 16.26-4.487 24.039 5.968 17.543 18.565 20.364 37.41 13.876z"/><path d="m250.599 220.811c-1.339-4.108-1.893-7.956-1.663-11.545.163-3.593 1.794-6.267 4.764-7.281 2.281-.791 4.688.943 7.283 5.276.095-.334.218-1.005.307-2.087.09-1.082.168-2.029.246-2.976.218-1.821 1.337-3.986 3.412-4.724 1.73-.626 3.403.24 4.648 2.233 1.24 2.06 2.201 4.236 3.223 7.301 1.072 3.273 1.96 7.145 2.792 11.693-.468.783-1.046 1.286-1.808 1.572-1.797.622-3.721-.467-4.526-2.904-.267-.835-.672-2.428-1.216-4.779s-1.066-4.157-1.488-5.547c-.494-1.327-.845-1.964-1.195-1.785-.345.112-.307 1.271-.257 2.295.016.613.177 1.917.216 2.26.265 4.099-.609 6.554-2.679 7.224-1.724.559-3.381-.511-5.031-3.28-.412-.709-2.895-5.578-3.318-5.336-.278.117-.268.798.021 2.179.289 1.38.761 2.978 1.344 4.856 1.177 3.62 2.255 6.825 2.816 8.157-.335 1.609-1.092 2.643-2.265 3.037-3.666 1.305-4.887-3.406-5.626-5.839z"/><path d="m277.925 213.934c-1.853-6.793-3.062-10.821-3.479-12.278-.105-.348-.488-1.394-.655-1.814-.049-.208-.155-.555-.255-.97-.205-.762-.171-1.168-.116-1.843-.032-1.226.857-2.251 2.653-2.872.066.005 1.445-.442 4.124-1.204 2.612-.768 4.402-1.321 5.241-1.737.7.457 1.25 1.108 1.511 2.01.532 1.669.031 3.673-1.459 4.655-.778.489-2.634 1.038-5.641 1.709l1.288 3.898c.483-.17 1.522-.572 3.118-1.207 1.595-.635 2.573-1.11 3.129-1.343.561.516.983 1.089 1.261 1.789.433 1.254-.062 2.375-1.408 3.231-.639.431-2.168 1.071-4.524 1.992l.915 2.716c.489 1.394 1.806.875 3.613.119 2.023-.945 3.435-1.797 4.308-2.619.983.274 1.6.929 1.922 1.904.477 1.529.037 2.79-1.592 3.83-1.634 1.108-3.44 1.864-6.547 2.936-3.936 1.354-6.48.494-7.407-2.902z"/><path d="m296.702 209.486c-2.445-1.261-4.267-3.565-5.327-6.971-1.338-4.106-.964-8.635 1.767-12.453 1.363-1.876 3.22-3.24 5.566-4.026 2.557-.907 4.875-.54 5.563 1.684.322.975.244 1.921-.096 2.781-.478.102-.956.205-1.439.374-2.346.787-4.081 2.296-5.072 4.537-.99 2.242-1.219 4.197-.625 5.939.855 2.644 2.861 3.534 5.074 2.738 1.934-.679 3.597-2.125 5.054-4.334 2.112.421 2.857 1.154 3.395 2.755.477 1.53.221 3.007-.958 4.284-1.118 1.349-2.741 2.322-4.743 2.996-2.968 1.014-5.647.961-8.159-.304z"/><path d="m313.364 203.725c-.428-1.323.096-2.783 1.621-3.355 1.246-.456 2.614.048 3.031 1.507.539 1.603-.313 2.971-1.693 3.418-1.241.389-2.476-.107-2.959-1.57z"/><path d="m94.3287 145.482c-.0354.011-.3421.034-.4839.081-.2203-.436-.5795-1.177-1.0421-2.237-.4511-1.024-.8448-1.872-1.157-2.59-.614-1.283-1.9358-3.897-2.7385-5.157-.9082-1.343-2.1909-2.992-3.3042-3.759-1.1019-.731-2.5248-1.122-3.9076-.667-1.9502.643-3.5815 2.628-4.0007 4.838-.7626 3.81-.757 8.773.0879 14.868-.1064.035-.3077.141-.4025.211-2.9394 1.947-3.486 3.886-2.7505 6.146.7354 2.26 1.9548 4.438 2.9388 5.169 2.8336-.582 3.9781-2.132 3.5043-4.674l-.4393-2.436c1.1317-.021 3.3875-.569 6.8269-1.703.8155-.269 2.0335-.749 3.5946-1.381s2.5674-1.159 3.0773-1.523l1.2259 2.802c.8908 2.013 2.5724 2.475 5.0099 1.398.032-2.435-.2-4.352-.648-5.729-.632-1.942-1.2-3.084-1.7624-3.485-.551-.366-1.788-.427-3.6289-.172zm-11.6395 3.564c-.022-.189-.089-.636-.2125-1.377-.1234-.741-.1665-1.235-.1999-1.459-.0335-.223-.0536-.647-.1426-1.282-.1195-1.212-.128-1.6-.1546-2.647-.0621-1.035-.0198-1.87.0945-2.846.2727-3.023.4875-3.328 2.1648-.949 1.0356 1.614 2.4493 4.51 4.1944 8.666zm26.2438-.286c3.12-1.029 5.249-3.295 6.141-5.74 1.364-3.772.906-8.196.02-10.797-.92-2.825-2.386-5.039-4.353-6.619-2.003-1.569-4.038-2.031-6.059-1.365-1.099.362-1.94.796-2.51 1.336-1.01-.449-1.834-.568-2.472-.358-3.9118 1.251-4.7114 8.083-2.5816 14.145 1.9047 6.214 6.7196 11.117 11.8146 9.398zm-1.529-6.143c-.78.257-1.624-.286-2.579-1.652-.943-1.331-1.72-2.873-2.283-4.604-1.057-3.248-.763-6.082 1.4-6.795 2.73-.9 4.676.374 5.814 3.869.69 2.119.886 4.048.541 5.765-.333 1.752-1.297 2.891-2.893 3.417z"/></g></svg>