<svg fill="none" height="242" viewBox="0 0 289 242" width="289" xmlns="http://www.w3.org/2000/svg"><path d="m17.4018 66.1993c5.9886-20.273 28.8414-28.6478 48.4933-27.3756 8.6909.5178 17.1135 2.6802 25.09 5.3563 1.3708-3.0339 4.5153-5.7379 10.1579-6.6541 12.831-3.0539 32.433-8.203 44.845-10.8736 4.232-.6871 7.415-.2458 11.137 2.2259l29.667 21.317c24.67 17.7411 47.336 34.2823 71.537 51.9858 1.693.721 7.131 4.805 3.058 11.052-12.005 17.014-27.556 39.028-42.422 59.696l-5.149 7.505c-3.496 5.421-8.453 4.65-14.441.92-21.311-15.828-40.906-30.044-62.687-45.909-12.128-8.381-24.359-17.262-36.459-26.114-5.4668-3.614-7.7103-3.98-7.8124-10.4815.2431-1.8548-.8265-13.9601-1.5063-25.6369-8.6791 2.758-19.1202 8.4621-25.8789 13.833-9.3253 7.2501-20.196 9.721-28.7787 8.3409-13.357-2.042-23.0893-15.136-18.8509-29.1872zm20.5967 23.9872c6.7304 1.1009 15.1546-3.0782 23.6856-7.7787 7.1499-5.2832 19.6582-12.0919 29.0618-13.3917-.7763-7.5388-1.2177-14.0478-.9731-16.2433-.283-.9499-.1466-2.2832-.4015-3.7042-15.3515-5.6263-32.0753-7.8781-47.433-.1403-4.9968 2.4249-10.0781 6.2628-12.9959 10.8589-9.1387 12.3381-3.1007 28.4902 9.0561 30.3993z" fill="red"/><g fill="#fff"><path d="m130.827 55.1967c3.521-5.2173 9.441-8.4601 12.699-6.0186.6.4083.937 1.099 1.116 2.2321.784.1765 1.593.5637 2.479 1.2414 1.721 1.2755 2.498 3.1582 2.463 5.6774-.166 2.4898-1.011 4.9631-2.718 7.3105-1.551 2.2463-4.802 5.1337-8.57 6.1974-2.46.6754-5.517.26-8.124-1.6932-4.197-3.1994-3.18-9.8686.655-14.947zm7.83 10.5063c1.571-.6707 2.987-1.9226 4.249-3.7558 2.101-2.9416 1.953-5.2291-.289-6.9635-1.851-1.3049-4.235.0024-6.231 2.7628-1.051 1.4708-1.841 3.0004-2.343 4.4583-.528 1.5885-.453 2.5616.198 3.0499 1.356 1.0566 2.819 1.2496 4.416.4483z"/><path d="m143.694 73.4025 8.378-11.6318c1.628-2.2961 3.641-2.4572 6.013-.694 4.874 3.5558 7.532 5.5884 8.001 5.9671 2.605 2.2937 1.08 4.7497-1.965 8.6384-3.02 4.0992-6.222 8.089-9.502 11.7883-.862-.1258-1.567-.3528-2.088-.8116-1.668-1.1951-1.398-3.524-.007-5.3272 4.358-5.6413 7.089-9.3276 8.218-10.8485-2.708-2.4537-4.219-3.7499-4.584-3.9687-.736.9269-2.626 3.5052-5.516 7.6338-2.967 4.1792-4.596 6.4752-4.885 6.8881-.94-.0753-1.879-.4917-2.896-1.1986-1.642-1.3256-1.347-3.4441.833-6.4353z"/><path d="m156.573 88.3984c4.881-4.8449 9.261-8.5727 13.01-11.2128 1.363-.9911 2.804-1.6915 4.506-2.333s3.532-.5708 4.705.3767c1.669 1.1959 2.369 2.7885 2.443 4.1033-.002.6827-.031 1.4961-.296 2.4613s-.582 1.8503-.846 2.4742c-.264.6238-.79 1.5302-1.291 2.6473-.579 1.1676-.975 2.1034-1.29 2.6472-.079.0506-1.291 2.6472-2.555 5.1638-.843 1.7915-1.713 3.7137-2.346 5.1427-.785.1649-1.699-.0413-2.716-.7487-1.252-.8969-1.823-2.1187-1.765-3.7454.111-1.8881 1.508-5.0579 3.377-8.5315.896-1.7115 1.396-2.8285 1.607-3.191 1.133-2.5461 1.266-3.1993 1.057-3.1782-1.363.9911-3.382 2.5178-5.874 4.6895s-4.589 3.749-6.424 5.0438c-1.756 1.2441-3.534 1.2535-4.473.4955-.495-.5897-.884-1.3607-.829-2.3047z"/><path d="m173.106 100.398c5.038-4.9463 9.367-8.7546 13.116-11.395 1.363-.9912 2.804-1.6917 4.585-2.3838 1.78-.6922 3.532-.571 4.784.3261 1.539 1.1666 2.266 2.6287 2.076 4.5676-.19 1.9388-.64 3.4774-1.695 5.9731-.396.9359-.844 1.7917-1.161 2.677.548.328 1.41.796 1.906 1.044-.003.683-.188 1.256-.661 1.901-.973 1.421-1.994 1.738-3.849 1.457-.184.231-.528 1.247-.686 1.69-.317.885-.818 2.002-1.476 3.221-.658 1.218-1.106 2.074-1.447 2.407-.811-.046-1.568-.353-2.402-.951-1.956-1.466-1.608-3.847-.895-5.668.37-1.147 1.212-2.597 1.292-2.989-1.802-.884-3.497-1.95-4.984-3.0362-1.81 1.5052-2.937 2.3452-3.252 2.5472-1.756 1.245-3.352 1.363-4.369.656-.679-.358-.938-1.1-.882-2.044zm15.858-3.0556c1.604-2.5087 2.71-4.5829 3.185-5.9108.053-.2613.08-.392.08-.392-1.362.6498-2.515 1.2784-3.537 1.9365-.97.7381-2.046 1.6575-3.122 2.9183 2.01.8629 3.133 1.3891 3.394 1.448z"/><path d="m195.211 115.252c.946-1.29 2.392-3.356 4.442-6.379 1.972-2.973 3.418-5.039 4.233-6.359-1.2-.817-1.904-1.385-2.295-1.815-1.745-1.8281-1.975-3.3831-.818-5.036.473-.6451 1.155-1.3114 2.046-1.9989.418.299 2.062 1.2844 4.906 3.0867 5.349 3.2552 8.376 5.1672 9.028 5.6552 1.878 1.175 2.683 2.928 1.553 4.45-.473.645-.998 1.21-1.837 1.637-.861-.468-2.872-1.331-6.083-2.669-.447.514-1.918 2.369-4.256 5.464-2.469 3.066-3.94 4.921-4.492 5.617-1.864 2.108-3.591 2.198-4.973 1.271-1.096-.657-1.59-1.588-1.454-2.924z"/><path d="m204.922 123.515c5.038-4.947 9.367-8.755 13.116-11.395 1.363-.992 2.804-1.692 4.584-2.384 1.781-.693 3.533-.571 4.785.326 1.539 1.166 2.266 2.629 2.076 4.567-.19 1.939-.641 3.478-1.695 5.974-.396.936-.844 1.791-1.161 2.677.548.328 1.41.795 1.906 1.044-.003.683-.188 1.256-.661 1.901-.973 1.421-1.994 1.738-3.849 1.456-.184.232-.528 1.248-.686 1.691-.317.885-.818 2.002-1.476 3.221-.658 1.218-1.106 2.074-1.447 2.407-.811-.046-1.568-.353-2.403-.951-1.956-1.466-1.607-3.847-.895-5.668.371-1.147 1.213-2.597 1.293-2.989-1.802-.885-3.498-1.95-4.984-3.037-1.81 1.506-2.938 2.345-3.252 2.548-1.757 1.244-3.352 1.363-4.37.656-.757-.308-1.068-1.129-.881-2.044zm15.858-3.056c1.604-2.509 2.71-4.583 3.185-5.911.053-.261.08-.392.08-.392-1.362.65-2.515 1.279-3.537 1.937-.971.738-2.046 1.657-3.123 2.918 1.932.914 3.055 1.44 3.395 1.448z"/><path d="m118.713 91.3976c.367-.4627.839-1.1064 1.598-1.8216-.183.2313-.731.2443-1.487-.0622-.782-.1762-1.511-.6131-2.11-1.0206-2.316-1.6806-3.975-4.9174-.356-9.9652.21-.3618 1.101-1.3883 2.412-3.1382 1.311-1.75 2.124-2.7259 2.464-3.0583.966-.0552 1.748.1209 2.399.6083 1.353 1.0546 1.4 2.4969.062 4.3772-.367.4627-.917 1.1568-1.808 2.1833-.812.976-1.441 1.7206-1.808 2.1834-.472.6436-.814 1.3165-.843 2.1281-.108.862.177 1.4716.828 1.959 1.067.7856 2.034.3898 3.158-.107.679-.3241 1.465-1.1697 1.989-1.7335.524-.5637 1.285-1.6196 1.704-2.0025l.655-.8749c.289-.4123.394-.5931.394-.5931.86.1256 1.434.3229 1.902.7011 1.119.8655 1.062 2.148-.249 3.898-.367.4627-1.049 1.4681-2.15 2.8563-1.179 1.4387-2.123 2.7259-2.884 3.7818-.839 1.1063-1.915 2.7048-3.514 4.867-.861-.1257-1.565-.3523-2.163-.7599-1.641-.983-1.636-2.3453-.193-4.4065z"/><path d="m122.675 96.9943c4.015-3.9473 7.583-7.0387 10.545-9.1731 1.128-.8394 2.254-1.3373 3.668-1.9071 1.415-.5698 2.826-.4568 3.844.2507 1.252.897 1.822 2.1189 1.634 3.7164-.189 1.5975-.507 2.8242-1.456 4.7972-.29.7546-.633 1.4291-.923 2.1837.365.219 1.096.6569 1.54.8253.024.5521-.213 1.0453-.45 1.5386-.841 1.109-1.574 1.354-3.09 1.081-.105.181-.422 1.066-.554 1.378-.29.755-.659 1.56-1.212 2.597s-.896 1.712-1.158 1.994c-.601-.067-1.255-.214-1.959-.782-1.538-1.167-1.218-3.076-.715-4.535.317-.885.975-2.1037 1.028-2.3651-1.488-.7451-2.767-1.5115-4.019-2.4085-1.468 1.1726-2.36 1.8601-2.622 2.1426-1.442 1.0419-2.75 1.089-3.454.5204-.521-.4591-.728-1.1207-.647-1.8541zm12.796-2.4477c1.315-2.0954 2.184-3.6764 2.554-4.8231.106-.1813.053-.2613.001-.3414-1.126.498-2.121 1.0254-2.856 1.6117-.734.5863-1.626 1.2738-2.518 2.3027 1.618.7745 2.558 1.1913 2.819 1.2501z"/><path d="m139.576 106.786c-.358-2.265.304-4.507 2.011-6.8536 2.075-2.8106 5.113-4.6529 8.85-4.5624 1.908.02 3.631.6129 5.221 1.8587 1.772 1.3552 2.655 3.0563 1.604 4.5273-.473.644-1.101 1.049-1.886 1.214-.287-.27-.573-.539-.938-.758-1.669-1.195-3.418-1.657-5.327-1.336s-3.297 1.101-4.164 2.34c-1.34 1.883-.928 3.547.61 4.713 1.303.976 3.053 1.438 5.248 1.386.7 1.592.593 2.456-.169 3.513-.762 1.058-1.809 1.505-3.22 1.392s-2.846-.777-4.201-1.834c-2.033-1.414-3.281-3.334-3.639-5.6z"/><path d="m153.674 118.645c.762-1.058 1.918-2.711 3.574-5.14 1.578-2.377 2.813-4.081 3.445-5.169-.966-.627-1.618-1.116-1.878-1.516-1.406-1.478-1.637-2.692-.743-4.062.367-.464.892-1.029 1.627-1.615.286.269 1.617 1.116 3.991 2.539 4.306 2.678 6.732 4.181 7.28 4.509 1.513.956 2.188 2.338 1.242 3.628-.368.464-.814.979-1.443 1.384-.679-.358-2.297-1.133-4.83-2.113-.368.464-1.55 1.906-3.494 4.406s-3.205 3.993-3.651 4.507c-1.496 1.645-2.961 1.793-4.031 1.006-.782-.518-1.172-1.289-1.089-2.364z"/><path d="m165.364 128.897c-.678-.357-1.12-.866-1.43-1.687-.311-.821-.23-1.553.243-2.198.367-.463.943-.947 1.99-1.394.995-.527 1.884-.873 2.747-1.088-.624-.959-.854-2.172-.849-3.535.004-1.364.401-2.64 1.11-3.777.972-1.419 2.49-2.17 4.45-2.411s3.709.221 5.298 1.466c2.501 1.792 4.14 3.799 4.314 6.296.073 1.313-.349 2.378-1.267 3.537-.289.412-.892 1.027-1.705 2.004-.814.977-1.522 1.773-1.994 2.418-1.313 1.752-2.652 3.634-3.835 5.757-.836.084-1.671-.172-2.453-.689-1.069-.787-1.56-2.058-.98-3.565l1.212-2.935zm12.519-8.851c.578-.826.841-1.449.739-1.95-.103-.501-.597-1.09-1.483-1.767-1.433-1.005-2.87-.988-3.553.019-1.129 1.52-.614 3.683.478 5.022.547.669 1.119 1.207 1.667 1.535.289-.413 1.023-1.339 2.152-2.859z"/><path d="m179.056 131.726c2.074-2.81 4.224-4.987 6.659-6.555 2.435-1.567 4.917-1.691 7.002-.197 1.668 1.194 1.581 3.632.078 7.321.288-.072.759-.375 1.466-.831.707-.455 1.336-.859 2.016-1.184 1.309-.729 3.269-.97 4.624.086 1.251.896 1.428 2.369.716 4.189-.712 1.819-1.658 3.449-3.181 5.563-1.628 2.295-3.674 4.633-6.27 7.325-.758.034-1.332-.164-1.879-.492-1.303-.976-1.506-2.66-.272-4.361.394-.594 1.286-1.622 2.467-3.062 1.259-1.491 2.178-2.65 2.861-3.656.604-.956.841-1.449.606-1.638-.234-.19-.968.396-1.623.931-.341.333-1.101 1.049-1.336 1.201-2.542 2.089-4.504 2.671-5.989 1.586-1.251-.896-1.323-2.551-.296-4.913.264-.623 2.238-4.615 1.846-4.704-.182-.109-.654.195-1.44 1.041-.787.847-1.549 1.904-2.494 3.193-1.812 2.527-3.282 4.721-3.965 5.728-1.204.548-2.223.523-3.057-.074-2.214-1.864.253-4.926 1.461-6.497z"/><path d="m208.668 155.95c-.788 1.187-1.235 2.041-1.393 2.483-.549.013-1.123-.185-1.722-.592-1.901-1.384-1.581-3.29.128-6.317-1.257.809-2.512 1.277-3.844 1.454-1.333.178-2.455-.007-3.471-.713-.885-.677-1.378-1.607-1.53-2.869s.008-2.386.535-3.632c.448-1.195 1.027-2.361 1.788-3.417.788-1.188 1.942-2.497 3.436-4.139s2.621-2.821 3.46-3.587c.731.096 1.304.294 1.773.672 1.302.976 1.427 2.709.35 4.309-.394.594-1.18 1.44-2.516 2.64s-2.149 2.177-2.622 2.821c-1.05 1.469-1.418 2.273-1.132 2.542.417.298 2.692-.486 6.199-2.629 1.779-1.032 3.533-2.275 5.235-3.597.915-.135 1.697.041 2.296.449 1.485 1.085 1.322 2.89-.541 5.336-.394.593-1.128 1.52-2.152 2.858-1.023 1.339-1.836 2.316-2.308 2.96-.63.745-1.234 1.701-1.969 2.968z"/></g></svg>